<svg width="39" height="39" viewBox="0 0 39 39" xmlns="http://www.w3.org/2000/svg"><title>Group 12</title><g fill="#FF3464" stroke="#FF3464" stroke-width=".3" fill-rule="evenodd"><path d="M7.165 12.53a.577.577 0 0 0 .733-.347l.007-.019a.567.567 0 0 0-.352-.725.576.576 0 0 0-.733.347l-.006.017a.568.568 0 0 0 .35.727m5.782 21.968a.58.58 0 0 0 .733-.346l.007-.02a.568.568 0 0 0-.351-.725.576.576 0 0 0-.733.348l-.006.018a.567.567 0 0 0 .35.725m23.372-6.902a.574.574 0 0 0-.626.512l-.002.024a.568.568 0 0 0 .575.618.572.572 0 0 0 .573-.51l.003-.032a.568.568 0 0 0-.523-.612"/><path d="M12.414 6.833c-.113-1.402-.367-2.842-.57-3.435-.16-.463-.147-.834.032-.9.132-.05.376.008.468.24.176.44.444 1.353.65 2.409l.004.017c.104.532.192 1.097.245 1.658a6.943 6.943 0 0 0-.83.01m4.9-3.349c1.148-.218 2.358-.11 3.375.283-.576.606-1.471 1.06-2.525 1.26-1.149.218-2.358.111-3.375-.282.576-.607 1.472-1.06 2.525-1.26m19.37 26.194a.722.722 0 0 0-.91.465 9.209 9.209 0 0 1-6.403 6.094 9.173 9.173 0 0 1-7.008-.923 9.3 9.3 0 0 1-1.724-1.28 9.122 9.122 0 0 1-1.687-2.147l-.021-.038a9.297 9.297 0 0 1-.871-2.143 9.174 9.174 0 0 1 .923-7.008 9.199 9.199 0 0 1 2.99-3.147 9.258 9.258 0 0 1 2.618-1.156c1.743-.467 3.149-1.687 4.509-2.866 2.237-1.941 3.713-3.07 5.773-1.882 2.035 1.175 1.814 2.867 1.248 5.756-.336 1.718-.717 3.665-.219 5.523.073.272.134.55.182.824a.722.722 0 0 0 1.422-.247 10.826 10.826 0 0 0-.21-.95c-.41-1.536-.079-3.232.242-4.872.27-1.38.526-2.683.37-3.915-.185-1.475-.942-2.578-2.313-3.37-1.384-.798-2.743-.894-4.156-.29-1.173.5-2.247 1.431-3.285 2.332-1.236 1.073-2.514 2.182-3.937 2.563-.895.24-1.742.589-2.528 1.035a12.49 12.49 0 0 0-.357-.374c-1.278-1.278-1.911-3.125-2.523-4.911-.51-1.488-.993-2.894-1.826-3.993-.619-.815-1.37-1.369-2.27-1.67a15.47 15.47 0 0 0-.084-.872 7.811 7.811 0 0 0 3.804.229c1.815-.345 3.302-1.325 3.979-2.622a.722.722 0 0 0-.274-.956c-1.423-.838-3.326-1.137-5.093-.802-1.166.222-2.197.707-2.965 1.37a11.762 11.762 0 0 0-.393-1.232c-.367-.92-1.404-1.395-2.312-1.058-.81.3-1.4 1.258-.896 2.723.16.464.413 1.88.51 3.265-1.636.602-2.483 1.94-3.008 3.012a.722.722 0 0 0 1.297.636c.677-1.385 1.46-2.136 2.565-2.406a.719.719 0 0 0 .107-.024 4.58 4.58 0 0 1 .958-.093c2.697 0 3.48 1.885 4.535 4.96.635 1.852 1.354 3.95 2.868 5.465l.158.162a10.668 10.668 0 0 0-2.736 3.132 10.608 10.608 0 0 0-1.067 8.103c.191.716.454 1.402.78 2.05-.6.556-1.614 1.01-2.397 1.034a.722.722 0 0 0 .023 1.443h.023c1.035-.033 2.24-.527 3.096-1.217.275.4.58.78.908 1.138-4.108 3.015-9.936 2.618-13.594-1.04-4.081-4.082-4.081-10.723 0-14.805 1.106-1.106 1.753-2.567 2.194-3.716a.722.722 0 0 0-1.348-.517c-.39 1.016-.953 2.299-1.866 3.212-4.645 4.644-4.645 12.202 0 16.847a11.872 11.872 0 0 0 8.427 3.489c2.633 0 5.17-.863 7.249-2.462.46.38.953.724 1.48 1.029a10.617 10.617 0 0 0 8.104 1.067 10.648 10.648 0 0 0 7.404-7.046.722.722 0 0 0-.466-.908"/><path d="M30.31 28.877a3.785 3.785 0 0 1-3.293 1.927 3.82 3.82 0 0 1-3.677-2.857 3.873 3.873 0 0 1 .38-2.925 3.787 3.787 0 0 1 2.31-1.795l3.676-.997.985 3.722a3.87 3.87 0 0 1-.38 2.925zm.564-7.697a.708.708 0 0 0-.325-.429.69.69 0 0 0-.53-.07l-4.35 1.18a5.174 5.174 0 0 0-3.157 2.454 5.293 5.293 0 0 0-.52 3.998c.622 2.351 2.729 3.906 5.025 3.906a5.175 5.175 0 0 0 4.503-2.635 5.292 5.292 0 0 0 .52-3.998l-1.166-4.406z"/></g></svg>