<svg width="40" height="29" viewBox="0 0 40 29" xmlns="http://www.w3.org/2000/svg" xmlns:xlink="http://www.w3.org/1999/xlink"><title>Group 6</title><defs><path id="a" d="M0 .06h40v27.986H0z"/></defs><g fill="none" fill-rule="evenodd"><path d="M26.897 13.77a.69.69 0 1 0 0-1.38.69.69 0 0 0 0 1.38" fill="#FF3464"/><g transform="translate(0 -.023)"><mask id="b" fill="#fff"><use xlink:href="#a"/></mask><path d="M38.43 19.53c0 6.265-6.982 6.94-9.985 6.94-4.838 0-7.771-2.387-11.168-5.152-1.944-1.582-3.814-3.324-8.41-3.324-2.054 0-3.294.439-5.542-.23-1.005-.3-1.763-1.267-1.763-2.251v-2.34c1.269 1.328 3.136 1.958 4.98 1.79l.008-.001.02-.002h.009c2.179-.21 4.092-.139 5.849.22 2.12.43 3.933 1.261 5.546 2.54 3.825 3.033 6.225 5.603 10.588 5.603 1.48 0 2.994-.296 4.437-.692a9.717 9.717 0 0 0 5.431-3.881v.78zM1.562 8.773c.074-.813.4-1.555.97-2.204 1.099-1.25 2.789-2.33 4.931-3.155L5.811 13.41c-2.196-.063-4.05-1.547-4.249-3.887v-.751zm7.579-5.927a29.02 29.02 0 0 1 4.718-.954l-1.917 11.601c-1.522-.237-3.004-.27-4.531-.178l1.73-10.47zm6.328-1.112c1.852-.14 3.73-.137 5.601.007l-2.4 14.532a14.457 14.457 0 0 0-5.195-2.468l1.995-12.07zm12.578 1.271l-1.121 6.788c-.08.48.287.918.771.918a.783.783 0 0 0 .77-.659l1.081-6.546c1.81.668 3.377 1.49 4.677 2.453l-2.543 15.383c-2.036.474-3.656.53-5.11.171l.867-5.244a.787.787 0 0 0-.642-.907.782.782 0 0 0-.9.648l-.82 4.966c-1.629-.768-3.18-2.096-5.01-3.586L22.63 1.894c1.913.229 3.73.601 5.418 1.111zm10.368 11.159c-.148 2.937-2.193 5.591-5.07 6.697l2.268-13.72c1.996 1.969 2.938 4.325 2.802 7.023zM14.725.215c-2.754.253-5.404.861-6.553 1.282C4.663 2.617.322 4.95 0 8.65v6.864c0 1.682 1.211 3.264 2.881 3.76 2.546.76 4.053.296 5.984.296 4.05 0 5.545 1.44 7.43 2.975 3.476 2.83 6.759 5.502 12.15 5.502 6.101 0 11.546-2.417 11.546-8.516 0 0 .007-5.413 0-5.455.39-10.903-14.19-14.88-25.266-13.86z" fill="#FF3464" mask="url(#b)"/></g></g></svg>