<svg width="97" height="191" viewBox="0 0 97 191" xmlns="http://www.w3.org/2000/svg" xmlns:xlink="http://www.w3.org/1999/xlink"><title>Group 17</title><defs><path id="a" d="M0 0h110v191H0z"/></defs><g fill="none" fill-rule="evenodd"><g transform="translate(-5)"><mask id="b" fill="#fff"><use xlink:href="#a"/></mask><g mask="url(#b)" fill="#56468F" opacity=".099"><path d="M54.752 122.91c-.34 3.988 2.343 25.01 3.78 33.253.645 3.92 2.483 10.269 1.838 13.686-.958 4.697-1.228 10.778-.723 14.325.349 2.163 1.368 12.094-.096 15.744-.784 1.895-2.177 11.662-2.177 11.662-3.676 9.221-1.603 8.754-1.603 8.754 1.124 1.419 3.066.13 3.066.13 1.498.951 2.517-.234 2.517-.234 1.29 1.047 2.753-.138 2.753-.138 1.603.848 3.1-.675 3.1-.675.915.441 1.124-.13 1.124-.13 2.753-.173-1.533-8.927-1.533-8.927-1.019-7.872 1.02-12.267 1.02-12.267 6.707-19.767 7.046-25 4.39-32.44-.784-2.162-.95-3.002-.61-3.919.81-2.162.2-10.847 1.185-14.29 1.907-6.627 3.78-23.452 4.73-31.29 1.332-10.58-4.626-24.775-4.626-24.775-1.29-5.779.61-26.324.61-26.324 2.656 4.092 2.552 11.358 2.552 11.358-.41 7.604 6.193 19.256 6.193 19.256 3.197 4.802 4.39 9.37 4.39 9.706 0 1.385-.305 4.732-.305 4.732l.14 2.933c.034.744.47 3.279.409 4.533-.514 7.604.714 6.185.714 6.185 1.02 0 2.143-6.116 2.143-6.116 0 1.549-.374 6.315.47 8.071 1.02 2.128 1.769-.372 1.804-.839.278-9.706.853-7.171.853-7.171.575 7.88 1.263 9.636 2.517 9.022.95-.432.105-9.42.105-9.42 1.629 5.337 2.857 6.176 2.857 6.176 2.718 1.86 1.02-3.304.645-4.351-1.978-5.441-2.039-7.336-2.039-7.336 2.483 4.897 4.356 4.732 4.356 4.732 2.447-.778-2.108-7.742-4.765-11.055-1.359-1.687-3.136-3.988-3.641-5.338-.819-2.266-1.463-9.593-1.463-9.593-.236-8.686-2.413-12.44-2.413-12.44-3.676-5.883-4.355-16.791-4.355-16.791l-.175-18.486C83.2 30.253 73.836 30.149 73.836 30.149c-9.424-1.418-10.748-4.429-10.748-4.429-2.004-2.872-.854-8.339-.854-8.339 1.673-1.358 2.282-4.905 2.282-4.905 2.753-2.093 2.622-5.164 1.36-5.138-1.02.034-.785-.805-.785-.805C66.798-7.29 54.447-8 54.447-8h-1.873s-12.386.71-10.653 14.533c0 0 .244.84-.81.805-1.263-.026-1.367 3.045 1.36 5.138 0 0 .644 3.547 2.307 4.905 0 0 1.159 5.467-.845 8.34 0 0-1.332 3.01-10.757 4.428 0 0-9.39.104-10.644 12.674l-.174 18.486s-.68 10.908-4.39 16.79c0 0-2.143 3.755-2.378 12.44 0 0-.645 7.328-1.464 9.594-.514 1.35-2.282 3.616-3.64 5.338-2.692 3.313-7.213 10.242-4.8 11.055 0 0 1.907.165 4.39-4.732 0 0-.07 1.851-2.038 7.336-.41 1.003-2.082 6.211.61 4.351 0 0 1.254-.839 2.891-6.176 0 0-.888 8.988.105 9.42 1.254.614 1.933-1.142 2.517-9.022 0 0 .575-2.535.845 7.171.035.467.75 2.967 1.803.84.854-1.757.48-6.489.48-8.072 0 0 1.123 6.116 2.142 6.116 0 0 1.228 1.419.749-6.185-.105-1.254.34-3.79.41-4.533l.104-2.933s-.305-3.347-.305-4.732c0-.337 1.22-4.904 4.39-9.706 0 0 6.594-11.652 6.185-19.256 0 0-.096-7.266 2.552-11.358 0 0 1.907 20.545.618 26.324 0 0-5.958 14.195-4.634 24.775.958 7.872 2.831 24.663 4.73 31.29.993 3.443.41 12.093 1.193 14.29.34.917.175 1.791-.61 3.92-2.656 7.439-2.316 12.672 4.39 32.44 0 0 2.074 4.394 1.02 12.266 0 0-4.286 8.754-1.533 8.927 0 0 .209.571 1.123.13 0 0 1.499 1.523 3.101.675 0 0 1.49 1.185 2.753.138 0 0 1.019 1.185 2.482.234 0 0 1.978 1.289 3.127-.13 0 0 2.047.467-1.594-8.754 0 0-1.428-9.732-2.177-11.662-1.498-3.65-.445-13.616-.14-15.744.514-3.547.244-9.628-.68-14.325-.678-3.383 1.16-9.767 1.839-13.686 1.394-8.209 4.12-29.265 3.78-33.253l1.124.407c.81 0 1.324-.407 1.324-.407"/></g></g><g transform="translate(29 75)" fill="#FF3464" fill-rule="nonzero" opacity=".15"><circle cx="20" cy="20" r="20"/><circle cx="20" cy="20" r="15"/></g><g transform="translate(36 9)" fill="#FF3464" fill-rule="nonzero" opacity=".15"><circle cx="12.5" cy="12.5" r="12.5"/><circle cx="12.5" cy="12.5" r="9.5"/></g><g transform="translate(17 56)" fill="#FF3464" fill-rule="nonzero" opacity=".15"><circle cx="12.5" cy="12.5" r="12.5"/><circle cx="12.5" cy="12.5" r="9.5"/></g><g transform="translate(24 123)" fill="#FF3464" fill-rule="nonzero" opacity=".15"><circle cx="12.5" cy="12.5" r="12.5"/><circle cx="12.5" cy="12.5" r="9.5"/></g><g transform="translate(54 56)" fill="#FF3464" fill-rule="nonzero" opacity=".15"><circle cx="12.5" cy="12.5" r="12.5"/><circle cx="12.5" cy="12.5" r="9.5"/></g><g transform="translate(49 123)" fill="#FF3464" fill-rule="nonzero" opacity=".15"><circle cx="12.5" cy="12.5" r="12.5"/><circle cx="12.5" cy="12.5" r="9.5"/></g></g></svg>