<svg width="50" height="40" viewBox="0 0 50 40" xmlns="http://www.w3.org/2000/svg"><title>Fill 1</title><path d="M40.878 37.955h-1.02V34.89c0-.564-.459-1.02-1.022-1.02-.566 0-1.024.456-1.024 1.02v3.066h-5.107V19.56h2.041v2.044a1.023 1.023 0 0 0 2.046 0V19.56h4.086v18.395zM30.66 23.382a130.508 130.508 0 0 1-4.795-2.844l-.218-1.69 1.345-2.14 3.668 2.304v4.37zm0 14.573H8.176V19.56h2.044v2.044a1.023 1.023 0 0 0 2.044 0V19.56h4.087v5.11a1.023 1.023 0 0 0 2.045 0v-5.11h5.282l.284 2.2c2.476 1.557 4.7 2.866 6.698 3.961v12.234zM5.228 6.787c-.893-.562-1.577-1.791-.56-3.407.55-.874 1.269-1.336 2.08-1.336.428 0 .854.126 1.234.364 4.264 2.681 13.622 10.29 17.245 13.268l-.575.915C20.399 14.613 9.494 9.469 5.228 6.787zm37.695 19.931l2.867 1.803c-.283.148-.747.233-1.31.233a8.72 8.72 0 0 1-1.557-.158v-1.878zm5.111 11.237h-5.11v-7.284c.579.087 1.095.127 1.556.127 4.11 0 3.719-3.178 3.719-3.178l-5.276-3.315v-5.767c0-.565-.458-1.022-1.02-1.022H32.12l-5.797-3.584C22.542 10.826 13.375 3.385 9.069.678A4.376 4.376 0 0 0 6.748 0C5.376 0 3.952.677 2.937 2.292c-1.627 2.586-.63 5.073 1.204 6.225 3.813 2.398 12.616 6.628 17.662 9H7.153a1.02 1.02 0 0 0-1.021 1.02v19.418h-5.11a1.022 1.022 0 0 0 0 2.045h47.012a1.022 1.022 0 0 0 0-2.045z" fill="#FF3464" fill-rule="evenodd"/></svg>