<svg width="39" height="40" viewBox="0 0 39 40" xmlns="http://www.w3.org/2000/svg" xmlns:xlink="http://www.w3.org/1999/xlink"><title>002-caper</title><defs><path id="a" d="M0 0h39v40H0z"/></defs><g fill="none" fill-rule="evenodd"><mask id="b" fill="#fff"><use xlink:href="#a"/></mask><path d="M37.204 0c-.99 0-1.796.825-1.796 1.838 0 .029 0 .057.002.085-2.85 1.367-5.543 3.965-7.71 7.422-2.18-.763-4.352-.9-6.492-.403-2.88.667-5.73 2.528-8.241 5.383-1.719 1.954-2.722 3.726-2.917 4.08-.677.784-1.65 1.41-2.775 2.13-2.195 1.408-4.927 3.16-6.596 7.05-.844 1.97-.904 4.144-.164 5.966.628 1.545 1.76 2.706 3.188 3.27a5.308 5.308 0 0 0 1.956.371 5.88 5.88 0 0 0 2.55-.6c1.745-.84 3.129-2.492 3.796-4.531 1.318-4.029.446-7.205-.255-9.757-.35-1.273-.653-2.378-.658-3.401.551-.975 4.408-7.441 10.374-8.82 1.844-.426 3.722-.327 5.619.29l-.126.223c-1.903 3.408-3.14 7.283-3.175 9.918-.36.969-1.041 1.902-1.827 2.977-1.553 2.122-3.484 4.763-3.672 9.007-.095 2.15.614 4.2 1.946 5.627 1.13 1.21 2.594 1.875 4.124 1.875 1.53 0 2.995-.666 4.124-1.875 1.332-1.427 2.041-3.478 1.946-5.627-.188-4.244-2.12-6.885-3.671-9.007-.785-1.072-1.464-2.003-1.825-2.969.033-2.353 1.187-6.168 3.252-9.733a16.355 16.355 0 0 1 3.038 1.737 1.87 1.87 0 0 0-.094.585c0 1.014.806 1.838 1.796 1.838s1.796-.824 1.796-1.838c0-1.014-.806-1.838-1.796-1.838a1.76 1.76 0 0 0-1.01.318 17.772 17.772 0 0 0-3.116-1.811c1.802-2.823 4.183-5.377 7.032-6.763.33.403.824.66 1.377.66.99 0 1.796-.825 1.796-1.839C39 .825 38.194 0 37.204 0zM1.573 33.101c-.622-1.528-.565-3.367.155-5.045 1.47-3.426 3.803-5.016 5.91-6.37-1.273 1.604-2.76 3.652-4.115 7.039-.12.3.02.641.313.764a.568.568 0 0 0 .747-.32c1.471-3.68 3.05-5.639 4.443-7.367.22-.274.437-.543.649-.813-.021.345-.037.693-.054 1.048-.103 2.238-.22 4.775-1.546 8.512-.744 2.095-2.086 4.485-3.41 5.101-.155.073-.377.145-.549.078h-.001l-.002-.001c-.465-.188-.866-1.577-.305-4.088a.586.586 0 0 0-.43-.701.573.573 0 0 0-.686.44c-.267 1.198-.355 2.26-.273 3.125a5.11 5.11 0 0 1-.846-1.402zm9.347-1.412c-.569 1.737-1.734 3.138-3.198 3.842a4.883 4.883 0 0 1-1.553.458c1.114-1.042 2.213-2.873 2.982-5.04 1.22-3.44 1.464-5.98 1.574-8.044.671 2.453 1.356 5.235.195 8.784zm8.509.863c.165-3.74 1.782-6.082 3.272-8.123-.624 1.967-1.29 4.426-1.362 8.084-.046 2.305.336 4.418 1.008 5.8a4.988 4.988 0 0 1-1.288-.998c-1.117-1.197-1.712-2.933-1.63-4.763zm9.853 0c.08 1.83-.514 3.566-1.63 4.763-.389.415-.824.75-1.289 1 .672-1.383 1.054-3.497 1.008-5.802a28.276 28.276 0 0 0-.284-3.567.575.575 0 0 0-.651-.493.585.585 0 0 0-.482.666c.16 1.092.249 2.21.273 3.418.044 2.228-.368 4.953-1.386 6.016-.12.125-.302.275-.486.275s-.366-.15-.486-.275c-1.018-1.063-1.43-3.788-1.386-6.016.079-3.975.862-6.384 1.553-8.51.11-.337.217-.669.32-.998.1.33.209.66.318.998.27.83.55 1.69.8 2.682a.571.571 0 0 0 .698.42c.306-.08.49-.4.41-.713a33.587 33.587 0 0 0-.573-1.987c1.49 2.04 3.107 4.384 3.273 8.123zm4.29-19.441a.66.66 0 0 1-.651.667.66.66 0 0 1-.651-.667.66.66 0 0 1 .65-.667c.36 0 .652.3.652.667zm3.632-10.606a.66.66 0 0 1-.652-.667.66.66 0 0 1 .652-.666.66.66 0 0 1 .651.666.66.66 0 0 1-.651.667z" fill="#FF3464" mask="url(#b)"/></g></svg>