<svg width="40" height="26" viewBox="0 0 40 26" xmlns="http://www.w3.org/2000/svg" xmlns:xlink="http://www.w3.org/1999/xlink"><title>Group 10</title><defs><path id="a" d="M0 .047h39.922V25.28H0z"/></defs><g fill="none" fill-rule="evenodd"><mask id="b" fill="#fff"><use xlink:href="#a"/></mask><path d="M36.71 17.301a2.26 2.26 0 0 1 1.653-2.177v4.354a2.261 2.261 0 0 1-1.652-2.177m-15.833-4.455a2.322 2.322 0 0 1-2.315 2.324 2.322 2.322 0 0 1-2.315-2.324 2.322 2.322 0 0 1 2.315-2.324 2.322 2.322 0 0 1 2.315 2.324M39.922 9.73l-.003-.06-.001-.014a.727.727 0 0 0-.01-.07l-.007-.026a.8.8 0 0 0-.033-.107l-.012-.03-.019-.038-.011-.023a.802.802 0 0 0-.035-.058l-.011-.015a.82.82 0 0 0-.13-.143l-.018-.016a.852.852 0 0 0-.039-.03l-.018-.012-.002-.002L26.15.177a.777.777 0 0 0-.692-.084L.52 9.003c-.006.001-.011.004-.016.006a.83.83 0 0 0-.207.118.839.839 0 0 0-.057.05l-.022.022a.69.69 0 0 0-.113.151.762.762 0 0 0-.1.323.691.691 0 0 0-.003.05L0 9.74v14.757c0 .433.35.783.78.783h20.743a.778.778 0 0 0 .77-.9 4.423 4.423 0 0 1-.048-.656c0-2.405 1.949-4.36 4.344-4.36.242 0 .484.02.721.059a.782.782 0 1 0 .257-1.544 5.927 5.927 0 0 0-.978-.081c-3.252 0-5.899 2.653-5.904 5.917H1.56V10.522h5.57a.78.78 0 0 0 .78-.782.781.781 0 0 0-.78-.783H5.297l20.32-7.259L36.55 8.957H13.094a.782.782 0 0 0 0 1.565h2.364a3.878 3.878 0 0 0-.77 2.324c0 2.144 1.739 3.889 3.875 3.889s3.874-1.745 3.874-3.89c0-.87-.286-1.674-.77-2.323h16.696v3.003a3.825 3.825 0 0 0 0 7.552v2.638h-5.87a5.965 5.965 0 0 0-.311-1.892.78.78 0 1 0-1.477.502 4.372 4.372 0 0 1 .179 2.056.785.785 0 0 0 .77.899h7.488c.43 0 .78-.35.78-.783V9.73" fill="#FF3464" mask="url(#b)"/><path d="M30.06 18.709l-.007-.005a.796.796 0 0 0-1.109.196.8.8 0 0 0 .658 1.26.797.797 0 0 0 .458-1.451m-19.34-2.117a1.81 1.81 0 0 1 1.808 1.808 1.81 1.81 0 0 1-1.808 1.808A1.81 1.81 0 0 1 8.912 18.4a1.81 1.81 0 0 1 1.808-1.808M7.36 18.4a3.364 3.364 0 0 0 3.36 3.36 3.364 3.364 0 0 0 3.36-3.36 3.364 3.364 0 0 0-3.36-3.36 3.364 3.364 0 0 0-3.36 3.36m2.099-7.84a.79.79 0 0 0 .781-.8.79.79 0 0 0-.781-.8H9.42a.79.79 0 0 0-.781.8c0 .442.35.8.781.8h.038z" fill="#FF3464"/></g></svg>