<svg width="46" height="40" viewBox="0 0 46 40" xmlns="http://www.w3.org/2000/svg" xmlns:xlink="http://www.w3.org/1999/xlink"><title>Group 14</title><defs><path id="a" d="M0 .09h45.986v35.86H0z"/></defs><g fill="none" fill-rule="evenodd"><path d="M10.633 27.342a1.013 1.013 0 1 0 0-2.026 1.013 1.013 0 0 0 0 2.026" fill="#FF3464"/><g transform="translate(0 3.544)"><mask id="b" fill="#fff"><use xlink:href="#a"/></mask><path d="M41.814 32.952c-.5.751-1.338 1.2-2.242 1.2H6.414a2.686 2.686 0 0 1-2.242-1.2l-1.596-2.395H43.41l-1.596 2.395zM6.644 27.83a2.694 2.694 0 0 1 1.978-.868c1.171 0 2.17.751 2.54 1.798h-5.08c.121-.342.31-.658.562-.93zm11.704.93h-5.08a2.699 2.699 0 0 1 2.54-1.798 2.7 2.7 0 0 1 2.54 1.798zm7.185 0h-5.08a2.699 2.699 0 0 1 2.54-1.798c1.17 0 2.17.751 2.54 1.798zm7.185 0h-5.08a2.699 2.699 0 0 1 2.54-1.798c1.171 0 2.17.751 2.54 1.798zm-9.725-16.178c.328 0 .655.01.982.026a6.286 6.286 0 0 0 .27 8.607 6.28 6.28 0 0 0 8.891 0c.713-.712 1.658-1.993 2.573-3.472 2.103 2.231 3.305 4.949 3.438 7.793a4.486 4.486 0 0 0-5.376 1.43 4.486 4.486 0 0 0-7.185-.001 4.486 4.486 0 0 0-7.186 0 4.486 4.486 0 0 0-7.185 0 4.486 4.486 0 0 0-5.375-1.43c.333-7.19 7.45-12.953 16.153-12.953zm15.701-7.095c.607-.608.811-1.509.56-2.47a.895.895 0 0 1 .233-.866.897.897 0 0 1 1.27 0l2.541 2.542a.899.899 0 0 1-.864 1.505c-.962-.25-1.86-.047-2.465.557l-1.243 1.243a2.391 2.391 0 0 0-.509-.763 2.39 2.39 0 0 0-.762-.51l1.24-1.238zm-1.538 4.357c-.163 1.436-1.04 3.622-2.405 5.998l-.006.011c-.98 1.706-2.138 3.35-2.88 4.092a4.485 4.485 0 0 1-6.35 0 4.492 4.492 0 0 1 0-6.355c1.702-1.702 7.144-4.958 10.095-5.293.392-.045 1.057-.07 1.337.209.21.21.283.684.209 1.338zm2.187 17.987c.251.272.44.587.56.929h-5.08a2.699 2.699 0 0 1 2.54-1.798c.75 0 1.472.316 1.98.87zm5.745.929h-3.325a4.465 4.465 0 0 0-.835-1.834c.018-.285.028-.573.028-.863 0-3.665-1.524-7.165-4.308-9.93.832-1.519 1.94-3.817 2.248-5.764l2.342-2.342c.195-.195.55-.14.744-.09a2.695 2.695 0 0 0 2.586-4.515L42.028.88a2.691 2.691 0 0 0-3.811 0 2.712 2.712 0 0 0-.702 2.59c.05.194.106.548-.091.746l-2.339 2.339c-2.954.466-6.967 2.791-9.216 4.425a21.337 21.337 0 0 0-2.876-.195c-4.77 0-9.26 1.57-12.645 4.423-3.43 2.89-5.318 6.745-5.318 10.855 0 .29.01.578.029.863a4.466 4.466 0 0 0-.836 1.834H.898a.898.898 0 0 0-.747 1.397l2.526 3.791a4.479 4.479 0 0 0 3.737 2.001h33.158a4.479 4.479 0 0 0 3.737-2l2.526-3.792a.9.9 0 0 0-.747-1.397z" fill="#FF3464" mask="url(#b)"/></g><path d="M13.147 23.526c1.613-1.698 3.893-2.95 6.42-3.524a.898.898 0 0 0 .665-1.07.875.875 0 0 0-1.043-.683c-2.857.65-5.448 2.078-7.295 4.024a.914.914 0 0 0 .016 1.27.86.86 0 0 0 1.237-.017M7.88 10.887c-1.728 1.225-1.733 3.934 0 5.162a.825.825 0 0 0 1.187-.252c.262-.42.156-.985-.238-1.264-.708-.503-.72-1.618 0-2.129 1.728-1.225 1.732-3.934 0-5.162-.393-.28-.925-.166-1.187.253-.262.418-.156.984.238 1.263.708.503.72 1.618 0 2.13m11.139-3.545c-1.728 1.225-1.732 3.934 0 5.162a.825.825 0 0 0 1.187-.253.948.948 0 0 0-.237-1.264c-.709-.502-.72-1.618 0-2.128 1.727-1.225 1.732-3.934 0-5.163a.826.826 0 0 0-1.188.253c-.262.42-.156.985.238 1.264.708.503.72 1.618 0 2.129M13.45 3.798c-1.728 1.225-1.733 3.934 0 5.163a.825.825 0 0 0 1.187-.253c.262-.419.155-.985-.238-1.264-.709-.502-.72-1.618 0-2.129 1.727-1.225 1.732-3.934 0-5.162-.394-.28-.925-.166-1.188.253-.262.419-.155.985.238 1.264.709.502.72 1.618 0 2.128" fill="#FF3464"/></g></svg>