<svg width="49" height="40" viewBox="0 0 49 40" xmlns="http://www.w3.org/2000/svg" xmlns:xlink="http://www.w3.org/1999/xlink"><title>003-coconut</title><defs><path id="a" d="M.007.063h48.945v39.922H.007z"/></defs><g fill="none" fill-rule="evenodd"><mask id="b" fill="#fff"><use xlink:href="#a"/></mask><path d="M43.797 15.863c-2.31-1.305-5.168-2.183-8.27-2.566a3.764 3.764 0 0 0-.368-1.677c-.354-.75-.922-1.353-1.6-1.7-.736-.375-1.547-.408-2.226-.09-1.136.532-1.65 1.917-1.323 3.31-3.74.243-7.213 1.187-9.931 2.723-3.325 1.879-5.155 4.426-5.155 7.173 0 4.148 1.504 7.951 3.996 10.9-7.756.277-14.631-4.182-16.7-11.039-1.092-3.62-.721-7.562 1.044-11.098a.797.797 0 0 0-.361-1.071.804.804 0 0 0-1.076.359C-.12 14.989-.527 19.346.683 23.357c2.214 7.338 9.376 12.19 17.55 12.19.7 0 1.408-.038 2.12-.11a16.985 16.985 0 0 0 11.585 4.548c9.381 0 17.014-7.603 17.014-16.949 0-2.747-1.83-5.294-5.155-7.173zm-11.781-4.587c.308-.144.64-.02.811.068.358.183.678.53.879.957.13.275.2.567.212.844a29.657 29.657 0 0 0-1.98-.069c-.09 0-.18.003-.27.004-.301-.765-.155-1.568.348-1.804zm-.078 27.11c-6.634 0-12.302-4.198-14.469-10.066.35.328.735.647 1.154.954a.804.804 0 0 0 1.122-.171.797.797 0 0 0-.172-1.118c-2.516-1.841-3.044-3.707-3.044-4.949 0-2.147 1.542-4.2 4.341-5.782 2.943-1.663 6.874-2.58 11.068-2.58 4.193 0 8.124.917 11.067 2.58 2.8 1.582 4.342 3.635 4.342 5.782 0 2.147-1.542 4.2-4.342 5.782-2.943 1.663-6.874 2.58-11.067 2.58-3.707 0-7.297-.74-10.108-2.081a.804.804 0 0 0-1.07.375.798.798 0 0 0 .376 1.066c3.024 1.443 6.86 2.238 10.801 2.238 4.467 0 8.679-.99 11.86-2.787 1.01-.572 1.882-1.205 2.607-1.886-2.167 5.867-7.834 10.063-14.466 10.063z" fill="#FF3464" mask="url(#b)"/><path d="M38.863 17.595a.799.799 0 1 0-.472 1.528c3.724 1.141 5.399 2.975 5.399 3.913 0 .713-.925 1.904-2.993 2.956-2.361 1.2-5.507 1.862-8.86 1.862-2.803 0-5.46-.464-7.637-1.318 1.663-.654 4.2-1.319 7.638-1.319 1.217 0 2.412.086 3.552.256a.8.8 0 0 0 .237-1.581 25.804 25.804 0 0 0-3.79-.273c-3.59 0-6.948.711-9.523 2.007-1.602-.952-2.329-1.959-2.329-2.59 0-.713.926-1.904 2.993-2.956 2.361-1.2 5.508-1.862 8.86-1.862 1.194 0 2.368.083 3.488.246a.8.8 0 0 0 .233-1.582 25.833 25.833 0 0 0-3.721-.262c-3.601 0-7.007.723-9.59 2.037-2.421 1.232-3.867 2.87-3.867 4.379 0 1.51 1.446 3.148 3.868 4.38 2.582 1.313 5.988 2.037 9.589 2.037 3.6 0 7.006-.724 9.589-2.038 2.422-1.232 3.868-2.869 3.868-4.379 0-2.057-2.625-4.244-6.532-5.441zm-1.222-5.788c-1.46-4.38-4.7-7.914-9.126-9.952C24.11-.174 19.008-.49 14.153.962 9.816 2.26 6.015 4.91 3.451 8.423a.797.797 0 0 0 .177 1.117c.359.26.86.18 1.121-.177 2.36-3.232 5.863-5.672 9.866-6.87 4.479-1.34 9.176-1.052 13.227.814 4.018 1.85 6.957 5.048 8.276 9.004a.802.802 0 0 0 1.523-.504z" fill="#FF3464" mask="url(#b)"/><path d="M29.61 6.91c-.817-1.54-2.652-2.306-4.09-1.705-1.44.6-1.946 2.343-1.13 3.884.627 1.185 1.857 1.911 3.046 1.911a2.71 2.71 0 0 0 1.044-.205c1.44-.6 1.946-2.343 1.13-3.884zm-1.86 2.507c-.572.239-1.4-.208-1.807-.976-.406-.768-.266-1.619.306-1.858a.87.87 0 0 1 .337-.064c.526 0 1.139.413 1.47 1.04.408.768.267 1.618-.306 1.858z" fill="#FF3464"/></g></svg>