<svg width="345" height="180" viewBox="0 0 345 180" xmlns="http://www.w3.org/2000/svg" xmlns:xlink="http://www.w3.org/1999/xlink"><title>Group 20</title><defs><path id="a" d="M0 0h325v214H0z"/><linearGradient x1="2.271%" y1="97.72%" x2="2.271%" y2="14.31%" id="b"><stop stop-color="#FFF" offset="0%"/><stop stop-color="#FF3464" offset="100%"/></linearGradient><path d="M0 17c15.11 76.449 123.443 119.449 325 129" id="e"/><filter x="-5.8%" y="-11.6%" width="111.7%" height="129.5%" filterUnits="objectBoundingBox" id="d"><feMorphology radius=".5" operator="dilate" in="SourceAlpha" result="shadowSpreadOuter1"/><feOffset dy="4" in="shadowSpreadOuter1" result="shadowOffsetOuter1"/><feMorphology radius=".5" in="SourceAlpha" result="shadowInner"/><feOffset dy="4" in="shadowInner" result="shadowInner"/><feComposite in="shadowOffsetOuter1" in2="shadowInner" operator="out" result="shadowOffsetOuter1"/><feGaussianBlur stdDeviation="5.5" in="shadowOffsetOuter1" result="shadowBlurOuter1"/><feColorMatrix values="0 0 0 0 1 0 0 0 0 0.203921569 0 0 0 0 0.392156863 0 0 0 1 0" in="shadowBlurOuter1"/></filter></defs><g fill="none" fill-rule="evenodd"><g transform="translate(11 -12)"><mask id="c" fill="#fff"><use xlink:href="#a"/></mask><path d="M0 17c15.11 76.236 123.443 119.116 325 128.64 201.557 9.525 201.557 24.819 0 45.881H0V17z" fill="url(#b)" fill-rule="nonzero" opacity=".131" mask="url(#c)"/></g><g fill-rule="nonzero" transform="translate(11 -12)"><use fill="#000" filter="url(#d)" xlink:href="#e"/><use stroke="#FF3464" stroke-width="3" xlink:href="#e"/></g><path d="M158.176 35.583v3.729L149.036 57h-5.248l9.801-17.655h-10.46v-3.762h15.047zm8.635 8.382a20.696 20.696 0 0 1 3.4-.297c2.221 0 3.992.533 5.312 1.6 1.32 1.068 1.98 2.602 1.98 4.604 0 2.178-.737 3.971-2.21 5.379-1.563 1.474-3.532 2.211-5.908 2.211-2.354 0-4.235-.594-5.643-1.782-1.474-1.232-2.233-2.926-2.277-5.082h3.993c0 1.122.374 1.947 1.122 2.475.748.528 1.705.792 2.871.792s2.129-.38 2.888-1.139c.759-.759 1.138-1.71 1.138-2.854 0-2.178-1.474-3.267-4.422-3.267h-6.534l.99-11.022h12.837v3.564h-9.075l-.462 4.818zm19.328-8.811a4.79 4.79 0 0 1 1.716.313c.55.21 1.034.523 1.452.941.902.858 1.353 2.101 1.353 3.729 0 1.606-.451 2.86-1.353 3.762-.836.836-1.903 1.254-3.201 1.254-1.254 0-2.3-.418-3.135-1.254-.902-.902-1.353-2.156-1.353-3.762 0-1.628.45-2.871 1.353-3.729.858-.836 1.914-1.254 3.168-1.254zm1.584 4.983c0-1.672-.54-2.508-1.617-2.508-1.056 0-1.584.836-1.584 2.508 0 1.694.528 2.541 1.584 2.541 1.078 0 1.617-.847 1.617-2.541zm9.9-4.554h3.927L187.063 57h-3.96l14.52-21.417zm.89 11.847c1.255 0 2.31.418 3.169 1.254.902.858 1.353 2.101 1.353 3.729 0 1.628-.451 2.893-1.353 3.795-.836.836-1.892 1.254-3.168 1.254-1.276 0-2.332-.418-3.168-1.254-.902-.902-1.353-2.167-1.353-3.795 0-1.628.45-2.871 1.353-3.729.858-.836 1.914-1.254 3.168-1.254zm0 2.475c-1.055 0-1.583.841-1.583 2.525 0 1.683.528 2.524 1.584 2.524.462 0 .847-.192 1.155-.578.308-.385.462-1.033.462-1.946 0-.914-.154-1.562-.462-1.947-.308-.386-.693-.578-1.155-.578zM141.92 74.37c.498-1.19 1.246-1.785 2.244-1.785.192 0 .436.04.73.119l-.033 2.006a4.454 4.454 0 0 0-.935-.102c-1.338 0-2.006.924-2.006 2.771V81h-2.006v-8.279h2.006v1.649zm11.643-.646c.283.363.496.782.637 1.258.142.476.213.912.213 1.309 0 .397-.023.754-.068 1.071h-5.338c.022.669.187 1.213.493 1.632.306.42.77.629 1.394.629.827 0 1.32-.363 1.479-1.088h2.023c-.136.827-.516 1.479-1.14 1.955-.645.499-1.433.748-2.362.748-1.088 0-2-.397-2.737-1.19-.76-.827-1.14-1.887-1.14-3.179 0-1.326.38-2.391 1.14-3.196.725-.77 1.637-1.156 2.737-1.156 1.144 0 2.034.402 2.669 1.207zm-2.652.391c-.567 0-1.009.184-1.326.553-.318.368-.505.841-.561 1.419h3.519c0-.895-.284-1.496-.85-1.802a1.66 1.66 0 0 0-.782-.17zm12.102 5.61c-.51 1.009-1.292 1.513-2.346 1.513s-1.938-.402-2.652-1.207c-.737-.839-1.105-1.904-1.105-3.196 0-1.292.351-2.34 1.054-3.145.691-.782 1.553-1.173 2.584-1.173 1.031 0 1.808.414 2.33 1.241v-4.42h2.022V81h-1.649l-.238-1.275zm-2.09-5.406c-.568 0-1.04.23-1.42.688-.38.46-.57 1.074-.57 1.845 0 .77.193 1.391.578 1.861.385.47.873.706 1.462.706.487 0 .924-.193 1.31-.578.396-.397.594-.895.594-1.496v-1.071c-.023-.59-.22-1.071-.595-1.445-.34-.34-.793-.51-1.36-.51zm13.444 5.185c-.521 1.1-1.36 1.649-2.516 1.649-1.462 0-2.425-.572-2.89-1.717-.17-.397-.255-.878-.255-1.445v-5.27h2.006v5.066c0 .544.13.95.391 1.215.261.267.581.4.96.4.38 0 .7-.054.961-.162.261-.107.488-.269.68-.484.42-.487.64-1.139.663-1.955v-4.08h2.006V81h-2.006v-1.496zm9.128-6.987c.521 0 .988.088 1.402.264a3.26 3.26 0 0 1 1.046.688c.566.544.9 1.23 1.003 2.057l-2.023.051a1.86 1.86 0 0 0-.502-.901 1.17 1.17 0 0 0-.841-.357c-.318 0-.59.048-.816.144a1.568 1.568 0 0 0-.595.451c-.386.476-.578 1.133-.578 1.972s.181 1.47.544 1.895c.362.426.801.638 1.317.638.516 0 .89-.122 1.122-.365.232-.244.349-.576.349-.995h2.023c0 .907-.3 1.66-.901 2.261-.612.612-1.468.918-2.567.918-1.088 0-2-.397-2.737-1.19-.782-.85-1.173-1.91-1.173-3.179 0-1.337.39-2.408 1.173-3.213.736-.76 1.654-1.139 2.754-1.139zm12.442 1.207c.283.363.496.782.637 1.258.142.476.213.912.213 1.309 0 .397-.023.754-.068 1.071h-5.338c.023.669.187 1.213.493 1.632.306.42.77.629 1.394.629.827 0 1.32-.363 1.479-1.088h2.023c-.136.827-.516 1.479-1.14 1.955-.645.499-1.433.748-2.362.748-1.088 0-2-.397-2.737-1.19-.76-.827-1.14-1.887-1.14-3.179 0-1.326.38-2.391 1.14-3.196.725-.77 1.638-1.156 2.737-1.156 1.145 0 2.034.402 2.669 1.207zm-2.652.391c-.567 0-1.009.184-1.326.553-.317.368-.504.841-.561 1.419h3.519c0-.895-.283-1.496-.85-1.802a1.66 1.66 0 0 0-.782-.17zm12.102 5.61c-.51 1.009-1.292 1.513-2.346 1.513s-1.938-.402-2.652-1.207c-.736-.839-1.105-1.904-1.105-3.196 0-1.292.352-2.34 1.054-3.145.692-.782 1.553-1.173 2.584-1.173 1.032 0 1.808.414 2.33 1.241v-4.42h2.022V81h-1.649l-.238-1.275zm-2.09-5.406c-.567 0-1.04.23-1.42.688-.38.46-.57 1.074-.57 1.845 0 .77.193 1.391.578 1.861.386.47.873.706 1.462.706.488 0 .924-.193 1.31-.578.396-.397.594-.895.594-1.496v-1.071c-.022-.59-.22-1.071-.595-1.445-.34-.34-.793-.51-1.36-.51z" fill="#FF3464"/></g></svg>