<svg width="33" height="40" viewBox="0 0 33 40" xmlns="http://www.w3.org/2000/svg" xmlns:xlink="http://www.w3.org/1999/xlink"><title>Group 10</title><defs><path id="a" d="M0 .039h32.455v39.864H0z"/></defs><g fill="none" fill-rule="evenodd"><g transform="translate(0 .059)"><mask id="b" fill="#fff"><use xlink:href="#a"/></mask><path d="M16.228 38.314c-8.483 0-14.64-6.936-14.64-16.491 0-4.99 1.594-10.091 4.373-13.998 2.844-3.997 6.49-6.198 10.267-6.198 3.777 0 7.423 2.201 10.266 6.198 2.78 3.907 4.374 9.009 4.374 13.998 0 9.555-6.157 16.491-14.64 16.491m11.56-31.41c-1.498-2.106-3.225-3.772-5.135-4.953C20.602.682 18.44.039 16.228.039c-2.212 0-4.374.643-6.425 1.912-1.91 1.18-3.638 2.847-5.136 4.953C1.701 11.074 0 16.512 0 21.823c0 2.664.425 5.166 1.262 7.434.805 2.182 1.973 4.104 3.471 5.713 2.961 3.18 7.043 4.933 11.495 4.933 4.451 0 8.533-1.752 11.494-4.933 1.499-1.61 2.667-3.531 3.472-5.713.837-2.268 1.261-4.77 1.261-7.434 0-5.311-1.7-10.75-4.667-14.92" fill="#FF3464" mask="url(#b)"/></g><path d="M16.206 32.658c-4.727 0-8.429-4.054-8.429-9.228 0-5.3 3.86-9.777 8.429-9.777 4.592 0 8.473 4.477 8.473 9.777 0 5.174-3.722 9.228-8.473 9.228m0-20.594c-2.688 0-5.22 1.218-7.128 3.429-1.863 2.159-2.89 4.978-2.89 7.937 0 6.065 4.4 10.816 10.018 10.816 2.708 0 5.24-1.112 7.128-3.13 1.891-2.022 2.933-4.752 2.933-7.686 0-2.957-1.035-5.777-2.914-7.94-1.92-2.209-4.458-3.426-7.147-3.426" fill="#FF3464"/><path d="M16.213 15.673c-.612 0-1.22.095-1.808.28a.794.794 0 0 0 .48 1.515 4.392 4.392 0 0 1 1.328-.206.794.794 0 0 0 0-1.589m-4.26 2.798a.794.794 0 0 0-1.104.208 8.319 8.319 0 0 0-1.42 4.654.794.794 0 1 0 1.589 0c0-1.345.405-2.68 1.142-3.758a.794.794 0 0 0-.207-1.104" fill="#FF3464"/></g></svg>