<svg width="345" height="130" viewBox="0 0 345 130" xmlns="http://www.w3.org/2000/svg" xmlns:xlink="http://www.w3.org/1999/xlink"><title>Group 14</title><defs><path d="M0 51.26c30.962.635 68.073 15.285 111.333 43.949C176.223 138.205 307.734 64.257 324 0" id="b"/><filter x="-6%" y="-14.4%" width="112%" height="136.1%" filterUnits="objectBoundingBox" id="a"><feMorphology radius="1" operator="dilate" in="SourceAlpha" result="shadowSpreadOuter1"/><feOffset dy="4" in="shadowSpreadOuter1" result="shadowOffsetOuter1"/><feMorphology radius="1" in="SourceAlpha" result="shadowInner"/><feOffset dy="4" in="shadowInner" result="shadowInner"/><feComposite in="shadowOffsetOuter1" in2="shadowInner" operator="out" result="shadowOffsetOuter1"/><feGaussianBlur stdDeviation="5.5" in="shadowOffsetOuter1" result="shadowBlurOuter1"/><feColorMatrix values="0 0 0 0 0.337254902 0 0 0 0 0.274509804 0 0 0 0 0.560784314 0 0 0 1 0" in="shadowBlurOuter1"/></filter><circle id="d" cx="79" cy="74" r="11"/><filter x="-79.5%" y="-61.4%" width="259.1%" height="259.1%" filterUnits="objectBoundingBox" id="c"><feMorphology radius="1" in="SourceAlpha" result="shadowSpreadOuter1"/><feOffset dy="4" in="shadowSpreadOuter1" result="shadowOffsetOuter1"/><feGaussianBlur stdDeviation="5.5" in="shadowOffsetOuter1" result="shadowBlurOuter1"/><feColorMatrix values="0 0 0 0 1 0 0 0 0 0.203921569 0 0 0 0 0.392156863 0 0 0 1 0" in="shadowBlurOuter1"/></filter></defs><g fill="none" fill-rule="evenodd"><g fill-rule="nonzero" transform="translate(10 6)"><use fill="#000" filter="url(#a)" xlink:href="#b"/><use stroke="#56468F" stroke-width="4" xlink:href="#b"/></g><g fill-rule="nonzero" transform="translate(10 6)"><use fill="#000" filter="url(#c)" xlink:href="#d"/><use fill="#FF3464" xlink:href="#d"/></g><path d="M55.454 39.42l6.24 10.1v-10.1h1.58V52h-1.76l-6.34-10.24V52h-1.6V39.42h1.88zm15.979 2.78c1.333 0 2.41.433 3.23 1.3.82.867 1.23 2.107 1.23 3.72 0 1.6-.41 2.833-1.23 3.7-.82.867-1.897 1.3-3.23 1.3s-2.41-.433-3.23-1.3c-.82-.867-1.23-2.1-1.23-3.7 0-1.613.41-2.853 1.23-3.72.82-.867 1.897-1.3 3.23-1.3zm2.86 5.02c0-1.147-.24-2.043-.72-2.69-.48-.647-1.183-.97-2.11-.97-.927 0-1.637.323-2.13.97-.493.647-.74 1.54-.74 2.68 0 1.14.233 2.033.7 2.68.467.647 1.163.97 2.09.97.927 0 1.643-.323 2.15-.97.507-.647.76-1.537.76-2.67zm9.198-3.44c-1.506 0-2.286 1.187-2.34 3.56V52h-1.58v-9.58h1.58v1.84c.48-1.333 1.327-2 2.54-2 .387 0 .754.06 1.1.18l-.08 1.54a3.84 3.84 0 0 0-1.22-.2zm5.919.5c.627-1.387 1.7-2.08 3.22-2.08.827 0 1.52.203 2.08.61s.967.97 1.22 1.69c.6-1.533 1.713-2.3 3.34-2.3 1.147 0 2.033.373 2.66 1.12.627.747.94 1.767.94 3.06V52h-1.56v-5.62c0-.92-.217-1.613-.65-2.08-.433-.467-1.057-.7-1.87-.7-.813 0-1.443.333-1.89 1-.447.667-.67 1.587-.67 2.76V52h-1.56v-5.62c0-.92-.217-1.613-.65-2.08-.433-.467-1.05-.7-1.85-.7s-1.447.327-1.94.98c-.493.653-.753 1.56-.78 2.72V52h-1.58v-9.56h1.36l.18 1.84zm23.779 1.52c0-.867-.18-1.487-.54-1.86-.36-.373-.884-.56-1.57-.56-.687 0-1.24.137-1.66.41-.42.273-.63.703-.63 1.29h-1.74c0-1.467.786-2.373 2.36-2.72.48-.107 1-.16 1.56-.16 1.186 0 2.113.3 2.78.9.666.6 1 1.513 1 2.74V52h-1.36l-.16-1.6c-.587 1.213-1.647 1.82-3.18 1.82-1.027 0-1.85-.287-2.47-.86-.62-.573-.93-1.287-.93-2.14 0-.853.343-1.52 1.03-2 .686-.48 1.543-.72 2.57-.72 1.026 0 2.006.173 2.94.52V45.8zm0 2.22c-.947-.267-1.774-.4-2.48-.4-.707 0-1.28.127-1.72.38-.44.253-.66.653-.66 1.2 0 1.2.68 1.8 2.04 1.8.773 0 1.436-.277 1.99-.83.553-.553.83-1.27.83-2.15zm5.958-9.64h1.58V52h-1.58V38.38z" fill="#FF3464"/></g></svg>