<svg width="26" height="36" viewBox="0 0 26 36" xmlns="http://www.w3.org/2000/svg"><title>Fill 1</title><path d="M24.146 34.134h-2.41V30.39a.93.93 0 0 0-.928-.933.93.93 0 0 0-.927.933v3.744H16.38l2.58-9.27 2.106.883a.953.953 0 0 0 .055.02c.124.045 3.026 1.111 3.026 4.827v3.54zm-9.692 0h-2.76L9.76 27.183a9.84 9.84 0 0 0 3.333.595 9.424 9.424 0 0 0 3.296-.601l-1.935 6.957zm-5.286-.001h-3.05V30.39a.93.93 0 0 0-.926-.933.93.93 0 0 0-.928.933v3.744h-2.41v-3.54c0-3.716 2.902-4.783 3.02-4.824l.061-.023 2.239-.94.241.867.001.003 2.353 8.456h-.601zm1.538-10.331a.932.932 0 0 0 .711-.908V21.48c.355.064.72.1 1.092.1h1.13c.369 0 .73-.035 1.082-.099v1.414c0 .428.289.8.7.905l1.782.452-.157.565c-3.758 2.133-7.007.567-7.939.018l-.169-.606 1.768-.426zm-2.482-8.404v-3.78c1.045-.355 3.077-1.176 4.794-2.638.828.804 2.416 2.026 4.906 2.69v3.728c0 2.379-1.922 4.314-4.285 4.314h-1.13c-2.363 0-4.285-1.935-4.285-4.314zm-1.855-2.802v1.91a1.158 1.158 0 0 1 0-1.91zm13.41 1.909v-1.91a1.156 1.156 0 0 1 0 1.91zM6.07 20.028c-1.38-1.99-2.137-4.483-2.137-7.1 0-6.099 4.1-11.061 9.14-11.061 5.041 0 9.142 4.962 9.142 11.061 0 2.611-.756 5.11-2.136 7.1a15.39 15.39 0 0 0-1.824-.56 6.181 6.181 0 0 0 1.42-2.947 3.019 3.019 0 0 0 2.46-2.97 3.02 3.02 0 0 0-2.423-2.965.928.928 0 0 0-.676-.572c-3.605-.74-5.146-2.817-5.207-2.9a.925.925 0 0 0-1.42-.111c-2.072 2.14-5.314 3.014-5.345 3.023a.928.928 0 0 0-.627.56 3.02 3.02 0 0 0-2.424 2.964 3.02 3.02 0 0 0 2.46 2.971 6.174 6.174 0 0 0 1.42 2.946 15.64 15.64 0 0 0-1.823.56zm15.68 3.984l-3.144-1.319a.898.898 0 0 0-.13-.043l-1.9-.483v-1.14c1.299.217 2.485.557 3.435.989a.926.926 0 0 0 1.154-.336.9.9 0 0 0 .062-.074c1.833-2.38 2.842-5.461 2.842-8.678C24.069 5.8 19.136 0 13.074 0 7.01 0 2.079 5.8 2.079 12.928c0 3.288 1.048 6.42 2.952 8.82l.018.02.024.027a.91.91 0 0 0 .067.067l.022.02a.915.915 0 0 0 .327.176l.018.006c.035.01.07.017.105.022l.019.003c.041.006.083.01.125.01l.016-.002a.895.895 0 0 0 .272-.045l.042-.017c.017-.006.034-.012.05-.02.948-.43 2.13-.769 3.427-.987v1.13l-2.029.489a.907.907 0 0 0-.14.046L4.25 24.012C2.76 24.532 0 26.555 0 30.594v4.472A.93.93 0 0 0 .927 36h24.146a.938.938 0 0 0 .927-.942v-4.464c0-4.04-2.76-6.062-4.25-6.582z" fill="#fff" fill-rule="evenodd"/></svg>