<svg width="40" height="27" viewBox="0 0 40 27" xmlns="http://www.w3.org/2000/svg" xmlns:xlink="http://www.w3.org/1999/xlink"><title>Group 6</title><defs><path id="a" d="M0 .044h40v26.753H0z"/></defs><g fill="none" fill-rule="evenodd"><path d="M13.281 11.016a.782.782 0 1 0 0-1.563.782.782 0 0 0 0 1.563" fill="#FF3464"/><g transform="translate(0 .034)"><mask id="b" fill="#fff"><use xlink:href="#a"/></mask><path d="M1.563 16.573c2.206 3.223 6.315 5.535 11.075 5.535 4.08 0 4.45-1.25 11.942-2.401 3.89-.598 8.14-.913 12.295-.913.523 0 1.046.005 1.563.015v2.338c0 .434-.35.777-.79.777h-.007c-7.374-.065-14.631.835-19.414 2.41-1.817.597-3.703.9-5.608.9-3.412 0-6.676-.971-9.438-2.81-1.013-.674-1.619-1.86-1.619-3.172v-2.679zM9.758 2.981l-8.104 9.84a6.307 6.307 0 0 1-.091-1.059c0-4.265 4.126-7.311 8.195-8.781zm2.66-.773a25.347 25.347 0 0 1 6.199-.593l-4.208 5.523a.781.781 0 0 0 1.243.947L20.5 1.722c2.2.194 4.398.63 6.438 1.276l-2.51 3.296h-4.116a3.129 3.129 0 0 0-3.125 3.125 3.13 3.13 0 0 0 2.523 3.066l-6.114 8.025c-2.261.167-4.522-.26-6.482-1.22l4.757-6.243a.781.781 0 1 0-1.242-.947l-4.88 6.404c-.343-.23-.673-.478-.987-.742-1.152-.967-2.005-2.032-2.543-3.169l10.2-12.385zm16.07 1.334c1.997.772 3.663 1.718 4.86 2.752h-6.957l2.097-2.752zm5.887 7.99a9.425 9.425 0 0 0-3.135-.55H20.313a1.564 1.564 0 0 1 0-3.126h14.062v3.676zm-10.404 6.689c-2.775.441-5.2 1-7.21 1.66-.305.1-.613.189-.925.267l5.793-7.604h6.667l-4.325 5.677zm14.25-.979a85.244 85.244 0 0 0-12.045.663l4.084-5.361h.98c2.947 0 6.182 1.853 6.981 4.698zM0 19.252c0 1.836.866 3.508 2.316 4.472 3.019 2.01 6.582 3.073 10.303 3.073 2.07 0 4.122-.33 6.096-.98 4.63-1.523 11.702-2.395 18.912-2.33h.022A2.34 2.34 0 0 0 40 21.147v-3.102a.778.778 0 0 0-.09-.362 8.034 8.034 0 0 0-.113-.586c-.463-1.977-1.854-3.716-3.86-4.852v-5.12a.78.78 0 0 0-.152-.517C32.389 2.056 23.662.044 17.969.044c-2.12 0-4.193.236-6.164.702C5.986 2.12 0 5.97 0 11.762v7.49z" fill="#FF3464" mask="url(#b)"/></g></g></svg>