<svg width="49" height="36" viewBox="0 0 49 36" xmlns="http://www.w3.org/2000/svg" xmlns:xlink="http://www.w3.org/1999/xlink"><title>004-cheese</title><defs><path id="a" d="M.007.04h48.945v35.846H.007z"/></defs><g fill="none" fill-rule="evenodd"><mask id="b" fill="#fff"><use xlink:href="#a"/></mask><path d="M48.707 24.427l-7.737-7.9a.826.826 0 0 0-1.185 0 3.136 3.136 0 0 1-2.257.954c-1.76 0-3.19-1.462-3.19-3.258 0-.87.331-1.69.934-2.304a.869.869 0 0 0 0-1.21L25.07.29a.826.826 0 0 0-1.186 0L12.726 11.683a.868.868 0 0 0 .225 1.374c1.315.656 2.131 1.99 2.131 3.482 0 2.133-1.7 3.869-3.79 3.869-1.46 0-2.766-.834-3.407-2.176a.827.827 0 0 0-1.346-.23L.246 24.427a.864.864 0 0 0 0 1.21c6.472 6.61 15.077 10.25 24.23 10.25 9.154 0 17.759-3.64 24.23-10.25a.869.869 0 0 0 0-1.21zm-24.23 9.748c-8.426 0-16.364-3.243-22.446-9.15l4.95-5.053a5.385 5.385 0 0 0 4.311 2.148c3.014 0 5.466-2.504 5.466-5.581 0-1.757-.784-3.36-2.103-4.405l9.822-10.027 9.067 9.259a5.006 5.006 0 0 0-.883 2.857c0 2.74 2.183 4.97 4.867 4.97a4.764 4.764 0 0 0 2.799-.902l6.594 6.734c-6.082 5.907-14.02 9.15-22.444 9.15z" fill="#FF3464" mask="url(#b)"/><path d="M29.5 23c-1.93 0-3.5 1.57-3.5 3.5s1.57 3.5 3.5 3.5 3.5-1.57 3.5-3.5-1.57-3.5-3.5-3.5zm0 5.506c-1.106 0-2.006-.9-2.006-2.006 0-1.106.9-2.006 2.006-2.006 1.106 0 2.006.9 2.006 2.006 0 1.106-.9 2.006-2.006 2.006zM21 11c-1.654 0-3 1.346-3 3s1.346 3 3 3 3-1.346 3-3-1.346-3-3-3zm0 4.255A1.257 1.257 0 0 1 19.745 14c0-.692.563-1.255 1.255-1.255s1.255.563 1.255 1.255-.563 1.255-1.255 1.255zM31 20.5a.5.5 0 1 1-1 0 .5.5 0 0 1 1 0zm-18 6a.5.5 0 1 1-1 0 .5.5 0 0 1 1 0z" fill="#FF3464"/></g></svg>