<svg width="40" height="36" viewBox="0 0 40 36" xmlns="http://www.w3.org/2000/svg" xmlns:xlink="http://www.w3.org/1999/xlink"><title>Group 12</title><defs><path id="a" d="M0 .046h39.092V36H0z"/></defs><g fill="none" fill-rule="evenodd"><mask id="b" fill="#fff"><use xlink:href="#a"/></mask><path d="M37.566 28.342a1.8 1.8 0 0 1-1.795 1.8h-4.275a1.8 1.8 0 0 1-1.795-1.8V25.17a.764.764 0 0 0-1.526 0v3.172a1.8 1.8 0 0 1-1.796 1.8h-4.275a1.8 1.8 0 0 1-1.795-1.8V7.704a1.8 1.8 0 0 1 1.795-1.801h4.275a1.8 1.8 0 0 1 1.796 1.8v11.613c0 .422.341.765.763.765a.764.764 0 0 0 .763-.765V7.704a1.8 1.8 0 0 1 1.795-1.801h4.275a1.8 1.8 0 0 1 1.795 1.8v20.639zm-5.326 6.127h2.787v-2.796H32.24v2.796zm-9.392 0h2.787v-2.796h-2.787v2.796zm0-30.097h2.787V1.576h-2.787v2.796zm9.392 0h2.787V1.576H32.24v2.796zm-13.457 23.97a1.8 1.8 0 0 1-1.795 1.8h-4.275a1.8 1.8 0 0 1-1.795-1.8V16.73a.764.764 0 0 0-1.526 0v11.612a1.8 1.8 0 0 1-1.796 1.8H3.321a1.8 1.8 0 0 1-1.795-1.8V7.704A1.8 1.8 0 0 1 3.32 5.903h4.275a1.8 1.8 0 0 1 1.796 1.8v3.172a.764.764 0 1 0 1.526 0V7.704a1.8 1.8 0 0 1 1.795-1.801h4.275a1.8 1.8 0 0 1 1.795 1.8v20.639zm-5.326 6.127h2.787v-2.796h-2.787v2.796zm-9.392 0h2.787v-2.796H4.065v2.796zm0-30.097h2.787V1.576H4.065v2.796zm9.392 0h2.787V1.576h-2.787v2.796zm23.096.094V.811a.764.764 0 0 0-.763-.765h-4.313a.764.764 0 0 0-.763.765v3.655a3.327 3.327 0 0 0-1.776 1.116 3.327 3.327 0 0 0-1.777-1.116V.811a.764.764 0 0 0-.763-.765h-4.313a.764.764 0 0 0-.762.765v3.655a3.327 3.327 0 0 0-1.777 1.116 3.328 3.328 0 0 0-1.776-1.116V.811a.764.764 0 0 0-.763-.765h-4.313a.764.764 0 0 0-.763.765v3.655a3.327 3.327 0 0 0-1.777 1.116 3.326 3.326 0 0 0-1.776-1.116V.811a.764.764 0 0 0-.763-.765H3.302A.764.764 0 0 0 2.54.81v3.655A3.335 3.335 0 0 0 0 7.704v20.638a3.335 3.335 0 0 0 2.54 3.237v3.655c0 .423.341.766.762.766h4.313a.764.764 0 0 0 .763-.766V31.58a3.326 3.326 0 0 0 1.776-1.115c.45.544 1.07.943 1.777 1.115v3.655c0 .423.342.766.763.766h4.313a.765.765 0 0 0 .763-.766V31.58a3.328 3.328 0 0 0 1.776-1.115c.45.544 1.07.943 1.777 1.115v3.655c0 .423.341.766.762.766h4.313a.765.765 0 0 0 .763-.766V31.58a3.327 3.327 0 0 0 1.777-1.115c.45.544 1.07.943 1.776 1.115v3.655c0 .423.342.766.763.766h4.313a.764.764 0 0 0 .763-.766V31.58a3.335 3.335 0 0 0 2.54-3.237V7.704a3.335 3.335 0 0 0-2.54-3.238z" fill="#FF3464" mask="url(#b)"/><path d="M10.174 12.522a.773.773 0 0 0-.783.764v.036c0 .423.35.765.783.765a.774.774 0 0 0 .783-.765v-.036a.774.774 0 0 0-.783-.764m18.783 9.391a.774.774 0 0 0-.783.764v.037c0 .422.35.764.783.764a.774.774 0 0 0 .782-.764v-.037a.774.774 0 0 0-.782-.764M7.043 17.217c-.432 0-.782.295-.782.658v3.38c0 .364.35.658.782.658.432 0 .783-.294.783-.657v-3.381c0-.363-.35-.658-.783-.658m18.783-4.695c-.432 0-.783.294-.783.657v3.381c0 .363.35.657.783.657.432 0 .783-.294.783-.657v-3.381c0-.363-.35-.657-.783-.657" fill="#FF3464"/></g></svg>