<svg xmlns="http://www.w3.org/2000/svg" viewBox="0 0 258.22 87.08"><defs><style>.cls-1{fill:#ff3464}.cls-2{font-size:42px;font-family:BerlinSansFBDemi-Bold,Berlin Sans FB Demi;font-weight:700}</style></defs><title>logo</title><g id="Слой_2" data-name="Слой 2"><g id="Слой_1-2" data-name="Слой 1"><g id="Слой_2-2" data-name="Слой 2"><g id="Слой_1-2-2" data-name="Слой 1-2"><g id="Layer_2" data-name="Layer 2"><path class="cls-1" d="M13.6 18.29c6.51 0 11.14-3.66 12.16-6.85 2.63-1.73 8.82-.67 12.38.57A32.43 32.43 0 0 1 64.77 63l4.69 3.27a38.14 38.14 0 0 0-31.31-60c-3.57 1.24-9.76 2.31-12.37.57C24.73 3.66 20.08 0 13.58 0S1.18 3.27 1.09 9.06v.15c.1 5.79 6.04 9.08 12.51 9.08zm10-6.8c-.22.35-5.08 7.55-15.6 3a21.25 21.25 0 0 0 15.6-3zm33.08 70.82l18.09-.17v-1.86l-18.2.17v-1.72l18.21-.17v-2l-18.21.18V75l18.2-.17v-1.56l-15.48-1.18h-.8A7.56 7.56 0 0 0 52.63 75c-6.36 5.74-12.94 1.92-14.49 1.94a32.44 32.44 0 0 1-26.88-50.6L6.52 23.1a38.15 38.15 0 0 0 31.63 59.48c1.8 0 9.29-3.21 14.92 2.2a7.56 7.56 0 0 0 5 2.3h.49l16.24-1.49v-1.72L56.69 84z" id="Layer_1-2" data-name="Layer 1-2"/></g><path class="cls-1" d="M37.3 35.78a8.59 8.59 0 0 1 7.87-5.33c4.73 0 8.15 4.05 8.58 8.88a8.66 8.66 0 0 1-.28 3.36 14.82 14.82 0 0 1-4.53 7.54L37.3 60.61 25.86 50.23a14.86 14.86 0 0 1-4.52-7.55 9 9 0 0 1-.28-3.35c.43-4.83 3.84-8.88 8.58-8.88a8.29 8.29 0 0 1 7.66 5.33z"/></g></g><text class="cls-2" transform="translate(78.84 58.76)">Life Cycle</text></g></g></svg>