<?xml version="1.0" encoding="UTF-8" standalone="no"?> <svg xmlns="http://www.w3.org/2000/svg" xmlns:xlink="http://www.w3.org/1999/xlink" xml:space="preserve" y="0px" x="0px" viewBox="0 0 369.8 68.7"> <style type="text/css"> .st0{fill:#ffffff;} .st1{fill:#578FD2;} </style> <path class="st0" d="m86.3 65.8l5.3-6.8h-2.4c-1 0-1.3 0.2-1.9 2.3h-0.8v-3.2h7.1v0.8l-5.3 6.8h2.7c1 0 1.2-0.2 1.9-2.4h0.8v3.3h-7.3v-0.8z"></path> <path class="st0" d="m97.3 65.6h1.3v-6.6h-1.3v-1h4.3v1h-1.3v6.6h1.3v1h-4.3v-1z"></path> <path class="st0" d="m109.5 58.1v1h-1.4v6.6h1.7c1 0 1.2-0.2 1.9-2.4h0.8v3.3h-7.3v-1h1.3v-6.6h-1.3v-1h4.3z"></path> <path class="st0" d="m118.2 59.9h-0.1v5.7h1.3v1h-3.5v-1h1.2v-6.6h-1.2v-1h3.2l4 6.1h0.1v-5.1h-1.3v-1h3.5v1h-1.2v7.7h-1.5l-4.5-6.8z"></path> <path class="st0" d="m128.8 65.6h1.3v-6.6h-1.3v-1h4.3v1h-1.3v6.6h1.3v1h-4.3v-1z"></path> <path class="st0" d="m136.7 62.4c0-2.5 1.9-4.5 4.1-4.5 1.1 0 1.9 0.4 2.4 1l0.2-1h1v3.4h-1c-0.6-1.6-1.4-2.5-2.5-2.5-1.3 0-2.3 1-2.3 3.4 0 2.3 0.9 3.5 2.6 3.5 1.4 0 2.2-1.1 2.5-2.6h1.1c-0.2 2.3-1.6 3.6-3.8 3.6-2.6 0.1-4.3-1.8-4.3-4.3z"></path> <path class="st0" d="m147.7 68.1c1-0.5 1.5-0.9 1.6-1.6h-0.1c-0.1 0.1-0.2 0.2-0.4 0.2-0.4 0-0.7-0.3-0.7-0.8s0.4-1 0.9-1c0.7 0 1.1 0.5 1.1 1.3 0 1.1-0.7 1.9-2.2 2.5l-0.2-0.6z"></path> <path class="st0" d="m158.6 65.6h1.3v-6.6h-1.3v-1h4c2.7 0 3.7 1.1 3.7 2.5 0 1.3-0.9 2.6-3.6 2.6h-1.1v2.4h1.5v1h-4.5v-0.9zm3.9-3.3c1.5 0 1.9-0.6 1.9-1.7 0-0.9-0.4-1.6-1.9-1.6h-0.9v3.2h0.9z"></path> <path class="st0" d="m172.5 65.6h1.3v1h-4.3v-1h1.3v-6.6h-1.3v-1h4.4c2.6 0 3.4 1.1 3.4 2.2 0 0.9-0.6 1.8-2.4 2.1v0.1c1.4 0.2 1.9 0.9 2 1.9l0.1 0.8c0 0.5 0.2 0.6 0.4 0.6s0.4-0.2 0.6-0.6l0.6 0.3c-0.3 0.9-0.8 1.5-1.6 1.5-1 0-1.7-0.5-1.7-1.8v-0.8c0-0.9-0.2-1.3-1.3-1.3h-1.3v2.6zm1.2-3.6c1.2 0 1.7-0.5 1.7-1.5 0-0.9-0.4-1.4-1.5-1.4h-1.4v2.9h1.2z"></path> <path class="st0" d="m181.4 65.6h1.3v-6.6h-1.3v-1h4.3v1h-1.3v6.6h1.3v1h-4.3v-1z"></path> <path class="st0" d="m189.2 65.6h1.2v-6.6h-1.2v-1h3.8l2 5.9h0.1l2-5.9h3.7v1h-1.3v6.6h1.3v1h-4.1v-1h1.1v-6.4h-0.1l-2.6 7.4h-0.8l-2.7-7.4h-0.1v6.4h1.2v1h-3.4v-1z"></path> <path class="st0" d="m209.4 63.7h-3l-0.7 1.9h1.1v1h-3.1v-1h0.9l2.9-7.6h1.7l2.8 7.6h1.1v1h-4.2v-1h1.3l-0.8-1.9zm-2.7-0.8h2.4l-1.1-3.4h-0.1l-1.2 3.4z"></path> <path class="st0" d="m221 63.7h0.9c0.8 1.6 1.4 2.2 2.7 2.2 1 0 1.5-0.5 1.5-1.3 0-0.9-1-1.2-2.2-1.5-1.4-0.4-2.9-0.8-2.9-2.6 0-1.4 1.2-2.6 2.8-2.6 0.8 0 1.7 0.3 2.1 0.9l0.3-0.9h1v3h-0.9c-0.7-1.6-1.4-2.1-2.4-2.1-0.8 0-1.3 0.5-1.3 1.2 0 1 1.1 1.3 2.3 1.6 1.4 0.3 2.8 0.8 2.8 2.5 0 1.6-1.3 2.7-3 2.7-1 0-1.9-0.4-2.4-1l-0.3 0.9h-1v-3z"></path> <path class="st0" d="m232.2 63.9v-4.9h-1.2v-1h4.1v1h-1.2v4.5c0 1.6 0.8 2.2 2.2 2.2 0.7 0 1.1-0.2 1.5-0.6s0.5-1 0.5-1.9v-4.2h-1.3v-1h3.5v1h-1.2v4.8c0 1.6-1.2 3-3.5 3s-3.4-1.2-3.4-2.9z"></path> <path class="st0" d="m246.5 65.6h1.3v1h-4.3v-1h1.3v-6.6h-1.3v-1h4.4c2.6 0 3.4 1.1 3.4 2.2 0 0.9-0.6 1.8-2.4 2.1v0.1c1.4 0.2 1.9 0.9 2 1.9l0.1 0.8c0 0.5 0.2 0.6 0.4 0.6s0.4-0.2 0.6-0.6l0.6 0.3c-0.3 0.9-0.8 1.5-1.6 1.5-1 0-1.7-0.5-1.7-1.8v-0.8c0-0.9-0.2-1.3-1.3-1.3h-1.3v2.6zm1.2-3.6c1.2 0 1.7-0.5 1.7-1.5 0-0.9-0.4-1.4-1.5-1.4h-1.4v2.9h1.2z"></path> <path class="st0" d="m255.5 63.7h0.9c0.8 1.6 1.4 2.2 2.7 2.2 1 0 1.5-0.5 1.5-1.3 0-0.9-1-1.2-2.2-1.5-1.4-0.4-2.9-0.8-2.9-2.6 0-1.4 1.2-2.6 2.8-2.6 0.8 0 1.7 0.3 2.1 0.9l0.3-0.9h1v3h-0.9c-0.7-1.6-1.4-2.1-2.4-2.1-0.8 0-1.3 0.5-1.3 1.2 0 1 1.1 1.3 2.3 1.6 1.4 0.3 2.8 0.8 2.8 2.5 0 1.6-1.3 2.7-3 2.7-1 0-1.9-0.4-2.4-1l-0.3 0.9h-1v-3z"></path> <path class="st0" d="m270.8 63.7h-3l-0.7 1.9h1.1v1h-3.1v-1h0.9l2.9-7.6h1.7l2.8 7.6h1.1v1h-4.2v-1h1.3l-0.8-1.9zm-2.9-8.9h0.7c0.2 0.7 0.5 1.1 1.2 1.1s1-0.4 1.2-1.1h0.7c0 1.4-0.8 2.2-1.9 2.2-1.2 0-1.9-0.7-1.9-2.2zm0.2 8.1h2.4l-1.1-3.4h-0.1l-1.2 3.4z"></path> <path class="st0" d="m21.5 22.7c-1.3 1.6-3.1 2.1-6.9 2.1h-6.7v17.7h-7.9v-42.5h15.8c0.2 0 1.3 0 2.1 0.2 2.5 0.5 3.7 2.2 4.2 3 0.9 1.8 0.9 4.5 0.9 6.4v5.6c0 4-0.2 5.9-1.5 7.5zm-6.2-12.1c0-1.2 0.2-2.5-0.6-3.4-0.9-1.1-2.6-0.9-2.9-0.9h-3.9v12.5h3.8c1.6 0 2.5-0.2 3-0.8 0.5-0.7 0.5-2.1 0.5-3v-4.4z"></path> <path class="st0" d="m39.7 42.6c-0.6-0.7-0.7-1.2-0.8-2.7-0.4 0.4-0.7 0.8-1.1 1.1-0.8 0.8-2.3 2.2-5.1 2.2-0.6 0-2.3-0.1-3.7-1.1-2.5-1.9-2.4-5.5-2.4-8.3 0-2.2-0.1-4.5 1.4-6.3 0.8-1 2.1-1.7 3.3-2.3l7.5-3.7v-1.8c0-1.8-0.2-2.7-1-3.3-0.4-0.2-0.8-0.4-1.6-0.4-0.3 0-1.7 0-2.2 1.2-0.2 0.5-0.2 1.6-0.2 2.9v1.1h-6.6v-3.5c0-0.7 0.1-2.8 1.7-4.4 1.3-1.3 3.8-2.3 7.8-2.3 0.9 0 6.3-0.1 8.4 3.9 0.7 1.3 0.7 2.4 0.7 3v17.1c0 1.7-0.2 5.5 0.9 7 0.1 0.2 0.2 0.3 0.5 0.5h-7.5zm-1-15.6l-3.5 2.3c-0.2 0.2-0.5 0.4-0.6 0.5-0.9 0.8-1 2.1-1 4.5 0 2.3 0.3 3.6 1.7 3.6 1 0 1.8-0.4 2.6-1.1l0.8-0.7v-9.1z"></path> <path class="st0" d="m70.9 45.6c-0.1 1.1-0.3 4.2-3.1 6.1-1.2 0.8-3.7 1.8-7.3 1.8-1.3 0-1.9-0.1-2.5-0.2-1-0.2-5.1-0.7-6.5-4.5-0.5-1.1-0.5-2.4-0.5-3.7h7.1c0 0.1-0.1 0.9 0.1 1.4 0.2 0.7 0.8 1.8 2.7 1.8 0.8 0 1.3-0.2 1.6-0.4 1.2-0.7 1.3-2.1 1.3-3.3v-4.8c-1 1.1-2.6 3-6.3 3-1.8 0-3.1-0.6-3.7-0.9-2.8-1.5-3-4.1-3-6.8v-16.2c0-1.2 0.1-2.2 0.4-3.4 0.5-1.4 2-4.4 6.2-4.4 2.8 0 4.5 1.3 6.4 3.1v-2.5h7.2v32c0 0.6-0.1 1.3-0.1 1.9zm-7.2-25.3c0-0.6 0.2-3.7-2.9-3.7-0.2 0-1.1 0-1.7 0.5-0.8 0.6-1.1 1.3-1.1 3.1v13.8c0 0.8 0.1 1.4 0.2 1.8 0.5 1.6 2.1 1.6 2.6 1.6 3 0 3-2.7 3-3.4v-13.7z"></path> <path class="st0" d="m76.3 7.2v-7.2h7.2v7.2h-7.2zm0 35.4v-30.9h7.2v30.9h-7.2z"></path> <path class="st0" d="m101.5 42.6v-22.8c0-1.9-0.1-2.7-1.1-3.3-0.2-0.2-0.7-0.4-1.4-0.4-3.4 0-3.1 3.6-3.1 4.2v22.3h-7.2v-30.9h7.3l-0.1 2.2c1.9-1.8 3.4-2.8 6.2-2.8s5.5 1.4 6.2 4.3c0.2 0.8 0.2 1.4 0.2 3v24.1h-7z"></path> <path class="st0" d="m126.4 42.6c-0.6-0.7-0.7-1.2-0.8-2.7-0.4 0.4-0.7 0.8-1.1 1.1-0.8 0.8-2.3 2.2-5.1 2.2-0.6 0-2.3-0.1-3.7-1.1-2.5-1.9-2.4-5.5-2.4-8.3 0-2.2-0.1-4.5 1.4-6.3 0.8-1 2.1-1.7 3.3-2.3l7.5-3.7v-1.8c0-1.8-0.2-2.7-1-3.3-0.3-0.2-0.8-0.4-1.6-0.4-0.3 0-1.7 0-2.2 1.2-0.2 0.5-0.2 1.6-0.2 2.9v1.1h-6.6v-3.5c0-0.7 0.1-2.8 1.7-4.4 1.3-1.3 3.8-2.3 7.8-2.3 0.9 0 6.3-0.1 8.4 3.9 0.7 1.3 0.7 2.4 0.7 3v17.1c0 1.7-0.2 5.5 0.9 7 0.1 0.2 0.2 0.3 0.5 0.5h-7.5zm-1-15.6l-3.5 2.3c-0.2 0.2-0.5 0.4-0.6 0.5-0.9 0.8-1 2.1-1 4.5 0 2.3 0.3 3.6 1.7 3.6 1 0 1.8-0.4 2.6-1.1l0.8-0.7v-9.1z"></path> <path class="st1" d="m215 42.6v-22.9c0-1.2 0-2.4-1.1-3.1-0.3-0.2-0.8-0.4-1.5-0.4-2.4 0-2.9 2-2.9 3.9v22.5h-7.1v-22.7c0-1.3 0.1-2.4-1-3.3-0.5-0.4-1-0.5-1.7-0.5-3 0-2.8 3.1-2.8 3.7v22.9h-7.1v-31h7.2v2.1c0.8-0.7 2.8-2.7 6.1-2.7s5.1 2.2 5.8 3.1c2.5-2.1 3.3-2.5 5.1-2.8 1-0.2 1.5-0.2 2-0.2 2.8 0 5.2 1.5 5.9 4.2 0.2 0.8 0.3 1.3 0.3 2.8v24.5h-7.2z"></path> <path class="st1" d="m234.3 28.7v5.1c0 1.1 0 1.5 0.2 2 0.5 1.6 1.9 1.7 2.5 1.7 1.1 0 1.9-0.6 2.3-1.7 0.3-0.8 0.2-3.1 0.2-3.5h6.9v2.5c0 1.1 0 1.7-0.3 2.8-1.2 4.3-5.1 5.5-9.2 5.5-6.3 0-8.4-3.1-9.3-5.9-0.4-1.5-0.5-3.7-0.5-4v-13c0-0.5 0.1-2.5 0.8-4.2 1.5-3.6 5.5-4.9 9.1-4.9 5 0 7.8 2.5 8.7 4.4 0.5 1.1 0.8 2.1 0.8 4.4v8.8h-12.2zm5.2-8.9c0-0.7 0.1-3.1-2.5-3.1s-2.7 2.3-2.7 3.1v3.8h5.1v-3.8z"></path> <path class="st1" d="m263.9 42.6l0.1-3c-0.7 1-2.3 3.7-6 3.6-2.2 0-3.6-0.8-4.3-1.3-2.3-1.7-2.6-3.7-2.6-8.6v-14.1c0-1.1-0.3-5.1 3.1-7.2 0.5-0.3 1.8-1 3.6-1 2.7 0 4.5 1.5 6.2 3.1v-14.1h7.2v42.6h-7.3zm0.1-22.5c0-1.4-0.1-2.4-1.3-3.1-0.8-0.4-1.4-0.5-1.7-0.5s-1 0.1-1.6 0.5c-1.2 0.8-1.1 2.1-1.1 3.4v13.1c0 1.8 0.2 2.5 1 3 0.2 0.2 1 0.5 1.7 0.5 1 0 1.9-0.4 2.5-1.2 0.4-0.6 0.5-1.2 0.5-2.5v-13.2z"></path> <path class="st1" d="m276.5 7.2v-7.2h7.2v7.2h-7.2zm0 35.4v-30.9h7.2v30.9h-7.2z"></path> <path class="st1" d="m301.5 42.6c-0.6-0.7-0.7-1.2-0.8-2.7-0.4 0.4-0.7 0.8-1.1 1.1-0.8 0.8-2.3 2.2-5.1 2.2-0.6 0-2.3-0.1-3.7-1.1-2.5-1.9-2.4-5.5-2.4-8.3 0-2.2-0.1-4.5 1.4-6.3 0.8-1 2-1.7 3.3-2.3l7.5-3.7v-1.8c0-1.8-0.2-2.7-1-3.3-0.3-0.2-0.8-0.4-1.6-0.4-0.3 0-1.7 0-2.2 1.2-0.2 0.5-0.2 1.6-0.2 2.9v1.1h-6.6v-3.5c0-0.7 0.1-2.8 1.7-4.4 1.3-1.3 3.8-2.3 7.8-2.3 0.9 0 6.3-0.1 8.4 3.9 0.7 1.3 0.7 2.4 0.7 3v17.1c0 1.7-0.2 5.5 0.9 7 0.1 0.2 0.2 0.3 0.5 0.5h-7.5zm-1-15.6l-3.5 2.3c-0.2 0.2-0.5 0.4-0.6 0.5-0.9 0.8-1 2.1-1 4.5 0 2.3 0.3 3.6 1.7 3.6 1 0 1.8-0.4 2.6-1.1l0.8-0.7v-9.1z"></path> <path class="st0" d="m312.4 42.6v-7.8h7.1v7.8h-7.1z"></path> <path class="st0" d="m338.3 18.3c-0.5-0.2-1.1-0.5-2.4-0.5-0.4 0-1.6 0-2.7 0.7-2 1.4-1.9 3.8-1.9 5.8v18.2h-7.1v-30.8h7.2l-0.1 3.9c0.2-0.3 0.5-1 1.1-1.8 2-2.7 4.7-2.7 6-2.7l-0.1 7.2z"></path> <path class="st0" d="m359 40c-2.7 3.3-7 3.1-8.2 3.1-1.4 0-2.5-0.2-3.1-0.3-1.2-0.2-4.5-1.3-5.7-4.9-0.4-1-0.5-2-0.5-4.2v-13.7c0-2.1 0.2-3 0.6-3.9 1.4-3.9 5.5-5 9.2-5 1 0 6.9-0.1 8.8 4.5 0.5 1.1 0.7 2 0.7 4.1v14.9c0 2.2-0.3 3.8-1.8 5.4zm-5.3-20.7c0-1.9-0.2-2.8-1.1-3.4-0.5-0.4-1.1-0.4-1.3-0.4-0.8 0-1.2 0.2-1.4 0.4-1.1 0.8-1.1 2.1-1.1 3.4v15.7c0 0.5-0.1 3.2 2.5 3.2 2.7 0 2.5-2.8 2.5-3.3v-15.6z"></path> <path class="st0" d="m153.2 42.4l0.1-3c-0.7 1-2.3 3.7-6 3.6-2.2 0-3.5-0.8-4.3-1.3-2.3-1.7-2.6-3.7-2.6-8.5v-14c0-1.1-0.3-5 3.1-7.1 0.5-0.3 1.8-1 3.5-1 2.6 0 4.4 1.5 6.2 3.1v-14.1h7.1v42.4h-7.1zm0-22.3c0-1.4-0.1-2.3-1.3-3.1-0.8-0.4-1.4-0.5-1.7-0.5s-1 0.1-1.6 0.5c-1.2 0.8-1.1 2.1-1.1 3.4v13.1c0 1.8 0.2 2.5 1 3 0.2 0.2 1 0.5 1.7 0.5 1 0 1.9-0.4 2.5-1.2 0.4-0.6 0.5-1.2 0.5-2.5v-13.2z"></path> <path class="st0" d="m170.5 28.6v5c0 1.1 0 1.5 0.2 2 0.5 1.6 1.9 1.7 2.5 1.7 1.1 0 1.9-0.6 2.3-1.7 0.3-0.8 0.2-3.1 0.2-3.5h6.9v2.5c0 1.1 0 1.7-0.3 2.8-1.2 4.3-5 5.5-9.1 5.5-6.3 0-8.4-3.1-9.2-5.9-0.4-1.5-0.5-3.7-0.5-4v-13c0-0.5 0.1-2.5 0.8-4.1 1.5-3.6 5.5-4.9 9.1-4.9 5 0 7.7 2.5 8.6 4.4 0.5 1.1 0.8 2 0.8 4.4v8.8h-12.3zm5.1-8.8c0-0.7 0.1-3.1-2.5-3.1s-2.6 2.3-2.6 3.1v3.8h5.1v-3.8z"></path> <path class="st0" d="m364.5 11.9c-3.1 0-5.3-2.4-5.3-5.4s2.3-5.4 5.3-5.4c3.1 0 5.4 2.4 5.4 5.4-0.1 3-2.4 5.4-5.4 5.4zm0-10.1c-2.6 0-4.5 2.1-4.5 4.6 0 2.6 1.8 4.6 4.5 4.6s4.5-2.1 4.5-4.6-1.9-4.6-4.5-4.6zm1.8 7.2c-0.7 0-0.9-0.2-0.9-0.8v-0.7c0-0.4-0.2-0.7-0.6-0.7h-0.9v2.2h-0.9v-5.1h1.9c1.1 0 1.4 0.5 1.4 1.3v0.2c0 0.6-0.2 0.9-0.8 1 0.6 0.1 0.8 0.5 0.8 1v0.6c0 0.1 0.1 0.2 0.3 0.2v0.8h-0.3zm-1-3.8c0-0.3-0.1-0.6-0.6-0.6h-0.9v1.6h0.9c0.4 0 0.7-0.2 0.7-0.7v-0.3z"></path> </svg> 