<svg width="27" height="36" viewBox="0 0 27 36" xmlns="http://www.w3.org/2000/svg" xmlns:xlink="http://www.w3.org/1999/xlink"><title>Group 3</title><defs><path id="a" d="M0 0h26.5v36H0z"/></defs><g fill="#fff" fill-rule="evenodd"><mask id="b"><use xlink:href="#a"/></mask><path d="M24.61 34.105h-2.456v-3.799a.946.946 0 1 0-1.89 0v3.8h-3.57l2.629-9.41 2.147.898.056.021c.127.045 3.084 1.127 3.084 4.898v3.592zm-8.92-3.433l-.258-1.608.201-.537.25.185c.096.07.203.119.314.15l-.506 1.81zm.94-7.172a.958.958 0 0 0 .144-.197l.662.438-1.345 2.771-.323-.237-.002-.002-1.054-.778L16.63 23.5zm-4.318 10.605l.675-4.192h.668l.674 4.192h-2.017zm-1.845-7.593L9.12 23.741l.664-.44a.945.945 0 0 0 .248.417l1.817 1.774-1.383 1.02zm.487 4.139l-.508-1.818a.918.918 0 0 0 .227-.121l.29-.213.243.583-.252 1.569zm2.332-6.401l-1.649-1.61v-1.38c.36.064.73.1 1.107.1h1.153c.378 0 .748-.036 1.107-.1v1.2l-1.718 1.79zm-.758 3.093l.75-.553.774.57-.247.659h-.994l-.283-.676zm-4.15-12.256V11.45c1.597-.142 4.863-.693 7.212-2.85.486.948 1.32 2.074 2.674 2.639v3.848a4.377 4.377 0 0 1-4.367 4.379h-1.152a4.378 4.378 0 0 1-4.368-4.379zm-.942-5.483h-.004a.83.83 0 0 0-.19.02c-.013.002-.026.006-.04.01l-.05.013a.413.413 0 0 0-.045.017.442.442 0 0 0-.04.014l-.051.024-.032.016c-.017.009-.033.02-.05.03l-.029.017-.044.033-.028.022c-.013.01-.026.023-.038.034a.602.602 0 0 0-.029.026c-.006.006-.01.013-.017.019V8.175c0-3.463 2.81-6.28 6.265-6.28h.601c3.455 0 6.265 2.817 6.265 6.28v1.71a.694.694 0 0 0-.06-.056.234.234 0 0 0-.031-.024l-.041-.031c-.012-.009-.024-.016-.036-.023a.652.652 0 0 0-.04-.026l-.044-.022c-.012-.006-.025-.013-.038-.018-.017-.008-.035-.014-.053-.02-.011-.005-.022-.01-.033-.013a.697.697 0 0 0-.06-.017l-.025-.007c-1.96-.447-2.576-2.995-2.582-3.017a.944.944 0 0 0-1.687-.346c-2.386 3.306-7.643 3.34-7.714 3.34zm-.948 4.577a1.172 1.172 0 0 1 0-1.938v1.938zm13.666-1.938a1.173 1.173 0 0 1 0 1.938v-1.938zm2.014 11.59l-3.152-1.317-2.122-1.403v-.52a6.29 6.29 0 0 0 3.154-4.366 3.068 3.068 0 0 0 1.722-5.065V8.176C21.77 3.668 18.112 0 13.615 0h-.601C8.517 0 4.859 3.668 4.859 8.176v3a3.068 3.068 0 0 0 1.734 5.051 6.29 6.29 0 0 0 3.154 4.365v.465L7.62 22.465a.985.985 0 0 0-.083.03l-3.204 1.338C2.814 24.361 0 26.413 0 30.513v4.539c0 .523.423.948.945.948H7.15a.946.946 0 0 0 .945-.947.946.946 0 0 0-.945-.947h-.914v-3.8a.946.946 0 0 0-1.89 0v3.8H1.89v-3.594c0-3.77 2.958-4.853 3.078-4.895a.905.905 0 0 0 .063-.024l2.28-.953 2.652 9.49a.946.946 0 0 0-.734.923c0 .523.422.947.945.947h15.381a.954.954 0 0 0 .945-.957v-4.53c0-4.1-2.813-6.152-4.332-6.68z" mask="url(#b)"/></g></svg>