<svg width="156" height="156" viewBox="0 0 156 156" xmlns="http://www.w3.org/2000/svg" xmlns:xlink="http://www.w3.org/1999/xlink"><title>Group 19</title><defs><path id="a" d="M0 0h29v156H0z"/><path id="c" d="M0 0h40v156H0z"/></defs><g fill="none" fill-rule="evenodd" opacity=".054"><path d="M78.5 41.127c20.608 0 37.373 16.765 37.373 37.373 0 20.608-16.765 37.373-37.373 37.373-20.608 0-37.373-16.765-37.373-37.373 0-20.608 16.765-37.373 37.373-37.373m0 80.873c23.986 0 43.5-19.514 43.5-43.5S102.486 35 78.5 35 35 54.514 35 78.5 54.514 122 78.5 122" fill="#000"/><g transform="translate(127)"><mask id="b" fill="#fff"><use xlink:href="#a"/></mask><path d="M22.83 146.86c0 1.68-1.384 3.046-3.085 3.046s-3.085-1.367-3.085-3.047V100.7c0-.808-.326-1.583-.904-2.154L9.07 91.942a9.656 9.656 0 0 1-2.9-6.916V45.493c0-14.01 6.133-27.177 16.659-36.262V146.86zM27.362.355a3.12 3.12 0 0 0-3.174.166C9.042 10.629 0 27.44 0 45.492v39.534c0 4.24 1.672 8.228 4.708 11.226l5.781 5.71v44.897c0 5.04 4.152 9.141 9.256 9.141 5.103 0 9.255-4.1 9.255-9.14V3.046c0-1.126-.63-2.161-1.638-2.69z" fill="#000" mask="url(#b)"/></g><path d="M57.305 77.96c0-8.778 5.409-16.676 13.78-20.123 1.6-.659 2.345-2.445 1.661-3.99-.683-1.544-2.536-2.261-4.137-1.602C57.912 56.649 51 66.743 51 77.96c0 1.679 1.411 3.04 3.152 3.04s3.153-1.361 3.153-3.04M77.935 57h.13C79.684 57 81 55.656 81 54c0-1.657-1.314-3-2.936-3h-.148c-1.621.011-2.927 1.363-2.916 3.02.01 1.65 1.323 2.98 2.935 2.98M55.423 31.591c7.343-3.698 15.276-5.574 23.579-5.574 14.415 0 27.822 5.698 37.75 16.046a3.049 3.049 0 0 0 2.207.937c.752 0 1.505-.274 2.093-.826a2.986 2.986 0 0 0 .113-4.254 57.92 57.92 0 0 0-18.827-13.098C94.966 21.622 87.115 20 79.002 20c-9.271 0-18.133 2.096-26.34 6.23a2.993 2.993 0 0 0-1.33 4.046c.762 1.48 2.594 2.069 4.09 1.315m67.424 79.064a3.038 3.038 0 0 0-4.267.5c-9.932 12.563-24.8 19.768-40.794 19.768-10.01 0-19.728-2.85-28.102-8.245a3.038 3.038 0 1 0-3.29 5.108C55.751 133.814 66.606 137 77.785 137c17.862 0 34.469-8.047 45.56-22.077a3.039 3.039 0 0 0-.499-4.268m-81.6 4.447l-.047-.057a2.952 2.952 0 0 0-4.15-.355 2.929 2.929 0 0 0-.357 4.137l.029.033.002-.001A2.943 2.943 0 0 0 39.056 120a2.94 2.94 0 0 0 1.917-.708 2.93 2.93 0 0 0 .316-4.14l-.043-.05z" fill="#000"/><mask id="d" fill="#fff"><use xlink:href="#c"/></mask><path d="M25.141 52.29c-1.277.377-2.156 1.57-2.156 2.927v91.642c0 1.68-1.339 3.047-2.985 3.047s-2.985-1.367-2.985-3.047V55.217c0-1.356-.88-2.55-2.156-2.927-4.652-1.372-8.055-5.447-8.754-10.243h27.79c-.7 4.796-4.102 8.871-8.754 10.243M40 40.22V3.047C40 1.364 38.664 0 37.015 0c-1.649 0-2.985 1.364-2.985 3.047v32.906h-5.376c0-.017.003-.033.003-.05V3.046C28.657 1.364 27.32 0 25.672 0c-1.649 0-2.985 1.364-2.985 3.047v32.855l.002.051h-5.378l.002-.05V3.046C17.313 1.364 15.977 0 14.328 0c-1.648 0-2.985 1.364-2.985 3.047v32.855l.003.051H5.97V3.047C5.97 1.364 4.634 0 2.985 0 1.336 0 0 1.364 0 3.047v37.172c0 7.474 4.443 14.22 11.045 17.135v89.505c0 5.04 4.017 9.141 8.955 9.141s8.955-4.1 8.955-9.14V57.353C35.557 54.438 40 47.693 40 40.22" fill="#000" mask="url(#d)"/></g></svg>