<svg id="Layer_1" xmlns="http://www.w3.org/2000/svg" viewBox="0 0 19 40"><style>.st0{fill:#ff3464}</style><title>Group 7</title><g id="Page-1"><g id="Keto_cycle4" transform="translate(-60 -543)"><g id="Group-4" transform="translate(25 146)"><g id="Group-7" transform="translate(35 397)"><path id="Fill-1" class="st0" d="M17.4 22.9v15.5H1.6V22.9c0-.7.1-1.4.2-2.1h11.1c.4 0 .8-.3.8-.8 0-.4-.3-.8-.8-.8H2.1c.3-1.2.9-2.5 1.6-3.6 1.6-2.4 2.4-5.2 2.4-8.2V1.6h6.7v6h-2.2c-.4 0-.8.3-.8.8 0 .4.3.8.8.8h2.3c.3 2.3 1 4.5 2.3 6.5 1.5 2.1 2.2 4.6 2.2 7.2m-.8-8.1c-1.4-2.2-2.2-4.7-2.2-7.3V.8c0-.4-.3-.8-.8-.8H5.4c-.5 0-.8.3-.8.8v6.7c0 2.6-.7 5.1-2.2 7.3C.8 17.2 0 20 0 22.9v16.3c0 .5.3.8.8.8h17.4c.4 0 .8-.3.8-.8V22.9c0-2.9-.8-5.7-2.4-8.1"/><path id="Fill-3" class="st0" d="M8.3 7.5c-.4 0-.8.3-.8.8 0 .4.3.7.7.7.5 0 .8-.3.8-.7 0-.5-.3-.8-.7-.8"/><path id="Fill-5" class="st0" d="M14.5 19.8c0 .4.3.8.7.8.4 0 .7-.3.7-.8 0-.4-.3-.8-.7-.8-.4 0-.7.3-.7.8"/></g></g></g></g></svg>