<svg width="39" height="40" viewBox="0 0 39 40" xmlns="http://www.w3.org/2000/svg" xmlns:xlink="http://www.w3.org/1999/xlink"><title>Group 12</title><defs><path id="a" d="M0 0h38.117v40H0z"/></defs><g fill="none" fill-rule="evenodd"><path d="M5.895 7.588a.781.781 0 0 0-1.094.156c-1.372 1.826-2.067 4.003-2.067 6.47 0 .805.216 1.6.623 2.297a.78.78 0 1 0 1.35-.788 2.996 2.996 0 0 1-.41-1.51c0-2.12.59-3.981 1.754-5.531a.781.781 0 0 0-.156-1.094" fill="#FF3464"/><mask id="b" fill="#fff"><use xlink:href="#a"/></mask><path d="M32.5 26.433a3.375 3.375 0 0 0-.334-.525.782.782 0 0 0-1.39.531c.1 1.833.59 3.384 1.024 4.752.349 1.1.65 2.05.64 2.84-.019 1.374-1.401 2.49-3.083 2.49-1.681 0-3.064-1.116-3.082-2.49-.01-.79.29-1.74.64-2.84.433-1.368.924-2.919 1.023-4.752a.781.781 0 0 0-1.389-.531 3.374 3.374 0 0 0-.335.525c-.2.366-.3.55-1.202.595h-.19c-.718 0-1.37-.282-1.85-.74l-.023-.025a2.614 2.614 0 0 1-.673-1.092l-.004-.013a2.725 2.725 0 0 1-.031-.109l-.008-.034a2.493 2.493 0 0 1-.02-.09l-.01-.05-.014-.077-.008-.063-.008-.066c-.003-.026-.004-.053-.006-.079l-.004-.052a6.82 6.82 0 0 1 .02-.697l.003-.033c.005-.057.01-.114.017-.17v-.006c.13-1.117.534-1.995 1.047-2.68l.018-.022c1.474-1.95 4.452-2.988 7.408-2.582l.023.001c.89.125 1.754.378 2.535.764 2.142 1.057 3.321 2.936 3.321 5.293 0 1.446-1.194 2.622-2.662 2.622h-.19c-.902-.045-1.003-.23-1.202-.595m1.183 2.157h.208c2.33 0 4.225-1.877 4.225-4.184 0-2.983-1.488-5.36-4.192-6.694a9.62 9.62 0 0 0-1.98-.714c.365-.88.556-1.826.556-2.784a.781.781 0 0 0-1.563 0c0 .876-.202 1.74-.589 2.525a10.588 10.588 0 0 0-.265-.02c-.017 0-.033-.002-.05-.003a11.072 11.072 0 0 0-.402-.016l-.044-.001a10.636 10.636 0 0 0-3.517.514l-.056.018-.21.073-.098.036-.154.06-.135.052-.068.03a8.943 8.943 0 0 0-1.278.655 7.696 7.696 0 0 0-1.624 1.34h-.001c-.346-.25-.524-.574-.746-.98a6.015 6.015 0 0 0-.565-.894l-.012-.017a3.448 3.448 0 0 0-.274-.302l-.01-.009a3.323 3.323 0 0 0-.095-.09l-.037-.032a3.62 3.62 0 0 0-.207-.167l-.035-.026a3.563 3.563 0 0 0-.133-.093l-.004-.002a3.64 3.64 0 0 0-.146-.091l-.006-.004-.006-.003c-.781-.459-1.833-.695-3.271-.748h-.01c-.09-.003-.181-.006-.274-.007l-.068-.002a18.62 18.62 0 0 0-.596 0l-.067.002c-.094.001-.186.004-.276.007H15.6c-1.439.053-2.49.29-3.271.748l-.007.003-.005.004c-.05.03-.1.06-.147.091l-.003.002c-.046.03-.09.061-.134.093l-.033.024a3.627 3.627 0 0 0-.211.171l-.034.03a3.384 3.384 0 0 0-.102.096l-.003.002a3.47 3.47 0 0 0-.274.303l-.014.018a6.017 6.017 0 0 0-.564.893c-.453.83-.781 1.43-2.955 1.534h-.387c-3.25 0-5.895-2.61-5.895-5.817 0-7.61 5.9-11.373 11.42-12.356 6.66-1.186 14.712 1.168 17.211 7.963l.069.191a.781.781 0 1 0 1.475-.513 13.504 13.504 0 0 0-.078-.218c-1.278-3.474-3.945-6.161-7.711-7.77C20.546.058 16.554-.365 12.708.32 9.15.953 6.088 2.462 3.846 4.682 1.33 7.175 0 10.471 0 14.214c0 4.07 3.345 7.38 7.457 7.38h.405l.037-.001c1.443-.068 2.352-.362 2.984-.793-.376 2.141-.993 4.093-1.557 5.875-.737 2.323-1.372 4.329-1.347 6.232.026 1.915.911 3.709 2.494 5.05C12.026 39.275 14.078 40 16.25 40c.373 0 .75-.022 1.117-.065a.781.781 0 0 0-.182-1.552 8.07 8.07 0 0 1-.935.055c-3.658 0-6.668-2.49-6.709-5.552-.022-1.65.579-3.545 1.274-5.739.804-2.537 1.712-5.403 1.933-8.738.188-.184.43-.346.765-.478.486-.186 1.2-.325 2.288-.355l.093-.002a16.624 16.624 0 0 1 .712 0l.094.002c1.089.03 1.803.17 2.29.356.334.131.575.293.762.476.11 1.649.392 3.313.883 5.2l-.002.035-.008.088a7.871 7.871 0 0 0-.023.882l.005.06.01.146.009.066c.005.046.01.093.017.139l.011.063a3.976 3.976 0 0 0 .071.34l.014.054a4.078 4.078 0 0 0 .256.695 3.893 3.893 0 0 0 .128.25l.04.068c.022.038.044.075.067.111l.018.029c.138.215.293.417.466.603.684 2.155 1.267 4.02 1.246 5.649-.02 1.464-.715 2.847-1.959 3.894a.781.781 0 1 0 1.006 1.195c1.596-1.343 2.49-3.143 2.515-5.068.019-1.402-.322-2.861-.797-4.46.35.093.718.143 1.097.143h.246c.398-.02.728-.07 1.006-.146-.185.812-.425 1.57-.649 2.275-.373 1.178-.726 2.29-.712 3.333.03 2.223 2.113 4.032 4.644 4.032 2.532 0 4.616-1.809 4.645-4.032.014-1.042-.339-2.155-.712-3.333-.224-.706-.464-1.463-.649-2.275a4.64 4.64 0 0 0 1.043.146" fill="#FF3464" mask="url(#b)"/><path d="M7.263 5.784a.781.781 0 1 1 0 1.562.781.781 0 0 1 0-1.562m24.217 5.234a.781.781 0 1 1 0 1.562.781.781 0 0 1 0-1.562m-11.796 26.56a.781.781 0 1 1 0 1.563.781.781 0 0 1 0-1.563" fill="#FF3464"/></g></svg>