<svg width="40" height="21" viewBox="0 0 40 21" xmlns="http://www.w3.org/2000/svg" xmlns:xlink="http://www.w3.org/1999/xlink"><title>Group 6</title><defs><path id="a" d="M0 .022h39.961v20.954H0z"/></defs><g fill="none" fill-rule="evenodd"><g transform="translate(0 .075)"><mask id="b" fill="#fff"><use xlink:href="#a"/></mask><path d="M32.403 18.888a9.978 9.978 0 0 0 1.424-1.919c.167-.29.32-.588.461-.894 1.151-.349 2.174-.82 3.024-1.386a8.967 8.967 0 0 1-4.91 4.199zm-29.754-4.2c.85.567 1.872 1.038 3.023 1.387.142.306.295.605.461.894.412.716.893 1.36 1.425 1.919a8.966 8.966 0 0 1-4.91-4.2zM4.165 4.265a8.892 8.892 0 0 1 3.42-2.166 10.565 10.565 0 0 0-1.9 2.836c-1.148.35-2.185.821-3.049 1.397a9.01 9.01 0 0 1 1.53-2.067zm33.16 2.067c-.864-.576-1.901-1.047-3.05-1.397a10.53 10.53 0 0 0-1.9-2.836 8.89 8.89 0 0 1 3.42 2.166 8.984 8.984 0 0 1 1.53 2.067zm-2.34.54c.975.415 1.8.942 2.408 1.56.653.665.981 1.367.976 2.086v.023c-.025 1.425-1.352 2.723-3.37 3.578.304-1.119.466-2.305.474-3.524a13.643 13.643 0 0 0-.489-3.723zm-5.5 8.288c-.768 0-1.531-.054-2.27-.16.277-1.11.45-2.363.499-3.704h1.507a.796.796 0 0 0 0-1.592h-1.508A18.109 18.109 0 0 0 27.203 6c.742-.106 1.51-.161 2.282-.161h.032a15.43 15.43 0 0 1 3.604.422c.496 1.304.77 2.781.76 4.323a11.944 11.944 0 0 1-.76 4.149 15.418 15.418 0 0 1-3.636.426zm-23.38-3.864h13.08v2.555a18.123 18.123 0 0 0-4.417.713 12.93 12.93 0 0 1-.45.124 14.696 14.696 0 0 1-.316-1.594.796.796 0 0 0-1.576.224c.084.593.193 1.154.324 1.682-.74.106-1.505.16-2.274.16a15.42 15.42 0 0 1-3.636-.426 11.819 11.819 0 0 1-.734-3.438zm-4.376 0h2.782c.054.973.206 1.92.451 2.823-1.655-.701-2.845-1.7-3.233-2.823zm2.782-1.592H1.73c.153-.435.433-.861.837-1.273C3.174 7.814 4 7.287 4.976 6.872a13.49 13.49 0 0 0-.466 2.832zm5.933-3.864h.031c.772 0 1.538.054 2.28.16-.138.552-.252 1.14-.338 1.764a.796.796 0 1 0 1.577.218c.081-.587.192-1.149.327-1.67.172.045.342.093.509.143 1.37.416 2.854.655 4.354.718v2.53H6.106c.078-1.221.333-2.388.734-3.44 1.116-.273 2.34-.42 3.604-.423zm10.332 3.864V7.172a17.59 17.59 0 0 0 4.355-.718c.166-.05.334-.098.505-.142.253.973.43 2.119.483 3.39h-5.343zm4.417 4.86a18.128 18.128 0 0 0-4.417-.714v-2.554h5.345a16.378 16.378 0 0 1-.473 3.393c-.154-.04-.306-.081-.455-.125zm3.738-12.931c.03.016.06.03.092.043 1.273.495 2.372 1.484 3.202 2.788-.872-.14-1.78-.214-2.705-.216h-.034c-.939 0-1.873.074-2.772.217-.309-.782-.679-1.449-1.1-1.964a8.874 8.874 0 0 1 3.317-.868zm-4.823 1.585c.354.317.709.858 1.02 1.583-.155.042-.309.085-.46.13-1.209.368-2.54.581-3.892.641V3.983a11.132 11.132 0 0 0 3.332-.766zm-4.924.766v1.588c-1.351-.06-2.683-.273-3.892-.64-.152-.047-.308-.09-.465-.132.3-.703.65-1.253 1.024-1.582 1.076.429 2.2.684 3.333.766zm-8.246-2.308a.748.748 0 0 0 .091-.043 8.894 8.894 0 0 1 3.314.867c-.422.512-.794 1.175-1.104 1.964a17.646 17.646 0 0 0-2.764-.216h-.034a17.23 17.23 0 0 0-2.705.216c.83-1.304 1.93-2.293 3.202-2.788zm.085 17.691a.804.804 0 0 0-.088-.04c-1.266-.488-2.364-1.478-3.195-2.784a17.74 17.74 0 0 0 5.495-.006c.31.79.682 1.453 1.104 1.965a8.907 8.907 0 0 1-3.316.865zm4.838-1.57c-.379-.328-.734-.883-1.038-1.595.134-.037.268-.074.4-.113a16.513 16.513 0 0 1 3.961-.648v1.616a11.44 11.44 0 0 0-3.323.74zm4.915-.74V15.44c1.366.06 2.715.276 3.962.648.133.04.268.077.403.113-.315.734-.677 1.277-1.042 1.594a11.447 11.447 0 0 0-3.323-.739zm8.25 2.27a.79.79 0 0 0-.088.04 8.9 8.9 0 0 1-3.315-.865c.426-.514.799-1.18 1.107-1.965.894.142 1.823.215 2.755.215.949 0 1.865-.073 2.735-.209-.83 1.306-1.928 2.296-3.195 2.784zm10.935-8.763v-.011a10.401 10.401 0 0 0-3.033-7.407A10.395 10.395 0 0 0 29.521.023a10.487 10.487 0 0 0-4.999 1.248 9.547 9.547 0 0 1-9.083 0 10.492 10.492 0 0 0-5-1.248 10.395 10.395 0 0 0-7.406 3.122A10.402 10.402 0 0 0 0 10.552v.041a10.411 10.411 0 0 0 3.1 7.345 10.412 10.412 0 0 0 7.376 3.038 10.5 10.5 0 0 0 4.892-1.21 9.858 9.858 0 0 1 9.225 0 10.5 10.5 0 0 0 4.892 1.21c2.782 0 5.402-1.08 7.377-3.038a10.41 10.41 0 0 0 3.099-7.345v-.03z" fill="#FF3464" mask="url(#b)"/></g><path d="M32.037 9.778h-.176a.796.796 0 1 0 0 1.592h.176a.796.796 0 0 0 0-1.592" fill="#FF3464"/></g></svg>