<svg width="41" height="40" viewBox="0 0 41 40" xmlns="http://www.w3.org/2000/svg" xmlns:xlink="http://www.w3.org/1999/xlink"><title>001-olives</title><defs><path id="a" d="M0 0h41v40H0z"/></defs><g fill="none" fill-rule="evenodd"><mask id="b" fill="#fff"><use xlink:href="#a"/></mask><path d="M36.962 15.752c-1.74-2.896-3.987-5.488-6.675-7.708-1.687-2.37-3.2-3.87-3.786-4.418.333-.878.639-1.771.907-2.68A.74.74 0 1 0 25.989.53c-.854 2.893-2.084 5.64-3.496 8.178-1.15-.213-3.772-.57-7.1-.208-4.083.442-10.03 2.1-15.188 7.487a.735.735 0 0 0 .387 1.233c1.766.359 3.445.513 5.028.513 4.974 0 8.991-1.524 11.727-3.012a26.435 26.435 0 0 0 2.218-1.352 65.232 65.232 0 0 1-5.262 6.537c-4.377 4.788-8.242 7.695-8.28 7.723a.737.737 0 0 0 .444 1.33c.154 0 .31-.049.442-.148.132-.1 2.751-2.068 6.162-5.48l.42 1.882-.037.088c-.086.22-.162.446-.231.674-1.786.915-3.233 2.702-3.907 4.85-.587 1.87-.55 3.82.104 5.49.676 1.726 1.926 2.951 3.52 3.45a5.176 5.176 0 0 0 1.547.235c1.401 0 2.819-.56 4.031-1.612a7.043 7.043 0 0 0 2.956.673c.647 0 1.29-.097 1.915-.292 1.974-.617 3.523-2.137 4.362-4.281.818-2.087.863-4.526.128-6.869-.735-2.342-2.167-4.32-4.032-5.567-1.664-1.114-3.497-1.537-5.244-1.224l-.623-2.92c2.218-2.724 4.545-6.017 6.464-9.71a35.192 35.192 0 0 0 .146 5.875 32.999 32.999 0 0 0 2.64 9.87c1.72 3.857 4.206 7.353 7.391 10.39a.741.741 0 0 0 1.236-.386c.434-2.126.664-4.246.69-6.348 1.056.78 2.179 1.5 3.355 2.15a.738.738 0 0 0 1.097-.686c-.27-4.826-1.628-9.305-4.037-13.311zm-21.588 5.173a70.21 70.21 0 0 0 1.4-1.578l.409 1.91a6.614 6.614 0 0 0-2.602 2.044l-.276-1.233c.352-.368.708-.748 1.07-1.143zm-1.992 17.431c-1.157-.362-2.075-1.277-2.584-2.578-.532-1.358-.557-2.96-.07-4.511.414-1.317 1.167-2.463 2.115-3.268-.11 1.362.05 2.783.485 4.17.707 2.254 2.061 4.168 3.823 5.422-1.186.86-2.545 1.148-3.769.765zM18.26 22.43a4.9 4.9 0 0 1 1.467-.224c1.105 0 2.238.364 3.297 1.073 1.586 1.062 2.809 2.76 3.444 4.783.635 2.023.602 4.114-.093 5.89-.674 1.718-1.89 2.93-3.427 3.41-1.537.48-3.229.179-4.764-.85-1.586-1.062-2.81-2.76-3.445-4.783-.635-2.023-.602-4.114.094-5.89.673-1.718 1.89-2.93 3.427-3.41zm-1.672-8.976a23.297 23.297 0 0 1-6.758 2.42 22.88 22.88 0 0 1-7.551.143 22.845 22.845 0 0 1 6.283-4.182 23.327 23.327 0 0 1 6.933-1.861 24.48 24.48 0 0 1 5.92.06c-.957.877-2.6 2.216-4.827 3.42zm18.07 18.834c-2.567-2.658-4.602-5.65-6.06-8.91a31.488 31.488 0 0 1-2.53-9.405c-.417-3.77-.099-6.87.162-8.53 1.163 1.214 3.198 3.58 5.01 6.913a31.508 31.508 0 0 1 3.3 9.164c.668 3.508.707 7.124.118 10.768zm1.858-6.575a31.637 31.637 0 0 0-.53-4.506 32.71 32.71 0 0 0-2.69-8.082 27.93 27.93 0 0 1 2.398 3.387c2.05 3.412 3.299 7.188 3.718 11.242a28.366 28.366 0 0 1-2.896-2.041z" fill="#FF3464" mask="url(#b)"/></g></svg>