<svg width="44" height="40" viewBox="0 0 44 40" xmlns="http://www.w3.org/2000/svg" xmlns:xlink="http://www.w3.org/1999/xlink"><title>Group 18</title><defs><path id="a" d="M0 .017h43.207v39.899H0z"/></defs><g fill="none" fill-rule="evenodd"><path d="M10.454 32.056c-2.652-1.038-5.813-3.204-5.813-7.636a.844.844 0 1 0-1.687 0c0 4.2 2.445 7.47 6.886 9.207a.842.842 0 0 0 1.093-.478.844.844 0 0 0-.479-1.093m2.066.637a.844.844 0 1 0-.21 1.661.844.844 0 0 0 .21-1.661m20.404 3.687l.058.843-.068-.841a.844.844 0 1 0 .123 1.683l.013-.001a.844.844 0 0 0-.126-1.683" fill="#FF3464"/><g transform="translate(0 .067)"><mask id="b" fill="#fff"><use xlink:href="#a"/></mask><path d="M16.535 36.036c-7.15-.003-14.847-3.66-14.847-11.683 0-6.802 5.883-9.704 9.39-10.828 2.216-.71 3.666-2.384 4.43-5.116.573-2.044.7-4.468.77-6.704h.513c.07 2.236.197 4.66.77 6.704.765 2.732 2.214 4.406 4.43 5.116 1.282.411 2.452.911 3.498 1.494-3.76.48-6.572 2.247-8.163 5.145l-.07.126a10.059 10.059 0 0 0-.268.544c-.035.076-.07.154-.103.232l-.06.14c-.051.123-.1.248-.148.374l-.004.01-.012.035c-.031.085-.062.17-.09.254l-.049.146-.045.14c-.02.063-.038.127-.057.19l-.026.089a8.56 8.56 0 0 0-.062.229l-.012.043c-.646 2.51-.332 5 .921 7.308l.005.01.133.237.007.012.013.022a11.408 11.408 0 0 0 .41.656l.018.027.035.053c1.092 1.605 2.617 3.028 4.44 4.172a20.26 20.26 0 0 1-5.767.823m21.37-17.663c-2.31-1.814-1.416-5.117.098-9.584a.844.844 0 0 0-.505-1.062l-1.665-.618a.844.844 0 0 0-1.076.474c-1.77 4.372-3.25 7.458-6.183 7.323l-.207-.007c-1.604-1.245-3.573-2.248-5.86-2.981-1.658-.531-2.713-1.79-3.322-3.964-.587-2.097-.664-4.764-.732-7.118a.844.844 0 0 0-.843-.82h-2.15a.844.844 0 0 0-.844.82c-.068 2.354-.145 5.02-.732 7.118-.609 2.173-1.664 3.433-3.321 3.964C3.75 14.101 0 18.518 0 24.353c0 4.152 1.819 7.637 5.259 10.08 2.011 1.427 4.484 2.422 7.191 2.922-.54.29-1.085.64-1.6 1.066a.844.844 0 0 0 1.074 1.302c1.268-1.047 2.802-1.57 3.767-1.814v1.079a.844.844 0 0 0 1.687 0v-1.079c.966.244 2.499.767 3.767 1.814a.84.84 0 0 0 1.188-.114.844.844 0 0 0-.114-1.188 9.788 9.788 0 0 0-1.606-1.07c1.29-.238 2.533-.59 3.699-1.049.455.212.924.408 1.404.587 1.406.522 2.85.871 4.291 1.039a.842.842 0 0 0 .936-.741.844.844 0 0 0-.741-.936 16.79 16.79 0 0 1-3.898-.944c-.756-.281-1.5-.619-2.215-1.008-3.211-1.754-6.229-4.818-6.4-8.713l-.002-.057-.003-.153-.002-.114.001-.12c0-.05.001-.098.003-.147l.004-.1a8.13 8.13 0 0 1 .101-.978l.013-.08a9.46 9.46 0 0 1 .035-.192l.016-.08c.013-.064.028-.127.042-.191l.02-.084a3.97 3.97 0 0 1 .047-.188l.023-.089.053-.185.027-.093.06-.188.03-.09c.026-.08.055-.159.084-.238l.014-.04.045-.117.04-.105.068-.163.022-.052c.028-.067.057-.132.087-.197l.005-.011c1.925-4.198 6.197-5.025 9.523-4.957h.018c.146.004.29.009.434.015 1.974.09 3.618-.809 5.028-2.747 1.014-1.395 1.8-3.188 2.488-4.869l.13.048c-.577 1.723-1.152 3.594-1.295 5.312-.198 2.39.46 4.144 2.014 5.364 2.884 2.266 5.937 5.999 4.109 10.919-1.008 2.713-3.043 4.556-5.886 5.328a.844.844 0 1 0 .443 1.629c3.39-.922 5.82-3.124 7.025-6.37 1.703-4.582.052-9.14-4.648-12.833" fill="#FF3464" mask="url(#b)"/></g><path d="M33.755 33.301c-1.892.372-4.233.118-6.423-.695-2.19-.814-4.129-2.15-5.318-3.668-1.394-1.776-1.726-3.681-.99-5.663.908-2.445 3.133-3.682 6.617-3.682.235 0 .475.006.721.017 1.495.068 2.876-.226 4.124-.875.521 1.306 1.376 2.432 2.552 3.355 3.07 2.412 4.134 4.958 3.165 7.568-.737 1.982-2.233 3.208-4.448 3.643m6.03-3.056c1.236-3.328-.045-6.607-3.705-9.482-1.2-.943-1.952-2.09-2.299-3.509a.844.844 0 0 0-1.31-.486c-1.188.847-2.507 1.226-4.032 1.156-4.65-.212-7.76 1.435-8.997 4.763-.942 2.534-.512 5.056 1.244 7.293 1.376 1.755 3.584 3.289 6.058 4.208 1.713.636 3.522.967 5.2.967.744 0 1.463-.066 2.136-.198 2.79-.549 4.763-2.178 5.705-4.712" fill="#FF3464"/><path d="M32.52 23.823a.837.837 0 0 0 .573.226.846.846 0 1 0-.62-1.419.844.844 0 0 0 .047 1.193" fill="#FF3464"/><path d="M35.813 24.538c-.088-.1-.18-.2-.273-.296a.844.844 0 1 0-1.217 1.169c.077.08.153.163.226.245.454.513.769 1.004.936 1.457.183.499.17.923-.051 1.516-.237.637-.556 1.048-1.037 1.334-1.513.9-4.122.585-6.036-.126-1.915-.711-4.096-2.176-4.654-3.846-.178-.53-.151-1.05.086-1.688.462-1.244 1.65-1.77 3.962-1.755.156 0 .315.005.473.012a11.213 11.213 0 0 0 3.007-.265.844.844 0 0 0 1.11-1.217 8.449 8.449 0 0 1-.128-.188.844.844 0 0 0-.931-.348 9.464 9.464 0 0 1-2.981.332 13.96 13.96 0 0 0-.54-.014c-1.227-.008-4.484-.027-5.555 2.855-.37.996-.404 1.915-.104 2.81.785 2.35 3.543 4.105 5.667 4.894 1.178.438 2.698.778 4.181.778 1.19 0 2.358-.22 3.306-.783.812-.483 1.386-1.202 1.756-2.198.357-.96.374-1.814.053-2.686-.24-.651-.663-1.321-1.256-1.992" fill="#FF3464"/><path d="M29.39 27.068c-.863-.32-1.952-.964-2.52-1.517.374-.04.834-.058 1.223-.04a14.35 14.35 0 0 0 1.89-.038c.437.449.909.872 1.405 1.262.306.24.643.555.9.829-.79.047-2.036-.175-2.899-.496m3.042-1.66a12.669 12.669 0 0 1-1.5-1.387.844.844 0 0 0-.72-.267c-.67.078-1.357.102-2.041.07-.195-.008-1.93-.073-2.762.375a.844.844 0 0 0-.366.392 2.195 2.195 0 0 0-.063.154c-.103.277-.119.432-.122.524a.854.854 0 0 0 .05.32c.6 1.793 3.862 3.05 3.895 3.062.023.008 1.685.604 3.231.604.634 0 1.247-.1 1.72-.382a.843.843 0 0 0 .243-.207c.06-.073.149-.201.251-.478.017-.044.036-.098.054-.158a.844.844 0 0 0-.023-.535c-.337-.882-1.693-1.966-1.847-2.087" fill="#FF3464"/></g></svg>