<svg xmlns="http://www.w3.org/2000/svg" viewBox="0 0 512 512"><circle cx="256" cy="267" r="245" fill="#a53535"/><circle cx="80.38" cy="257.24" r="34.503" fill="#ffd00d"/><path d="M65.723 257.242c0-15.606 10.364-28.786 24.582-33.048a34.503 34.503 0 0 0-9.922-1.455c-19.055 0-34.503 15.448-34.503 34.503s15.448 34.503 34.503 34.503c3.45 0 6.779-.513 9.922-1.455-14.218-4.263-24.582-17.442-24.582-33.048z" fill="#ffaf10"/><path d="M407.896 185.208c-43.599 0-80.219-30.452-89.711-71.203H106.273c-5.5 0-10 4.5-10 10v116.976c0 5.5 4.5 10 10 10h299.453c5.5 0 10-4.5 10-10v-56.109a93.018 93.018 0 0 1-7.83.336z" fill="#91e0e8"/><path d="M116.116 240.981V124.005c0-5.5 4.5-10 10-10h-19.843c-5.5 0-10 4.5-10 10v116.976c0 5.5 4.5 10 10 10h19.843c-5.5 0-10-4.5-10-10z" fill="#5dc1d8"/><path d="M235.499 458.876v52.263c6.761.56 13.596.861 20.501.861 34.653 0 67.618-7.21 97.499-20.187v-32.937h-118z" fill="#37c47a"/><path d="M255.342 458.883h-19.843v52.263a248.98 248.98 0 0 0 19.843.854v-53.117z" fill="#02af8e"/><path d="M355.547 410.039V284.467c0-8.25-6.75-15-15-15h-5.998c-5.931 0-11.071 3.497-13.501 8.523-2.43-5.026-7.57-8.523-13.501-8.523h-5.998c-5.931 0-11.071 3.497-13.501 8.523-2.43-5.026-7.57-8.523-13.501-8.523h-5.998c-4.901 0-9.261 2.393-12.002 6.058v-58.392c0-8.25-6.75-15-15-15h-5.998c-8.25 0-15 6.75-15 15v122.96l-16.686-16.686c-5.834-5.833-15.379-5.833-21.213.001l-6.241 6.241c-5.833 5.834-5.833 15.38 0 21.213l59.177 59.177h119.961z" fill="#ffe2b8"/><path d="M255.429 410.039l-59.177-59.177c-5.833-5.833-5.833-15.379 0-21.213l6.241-6.241c.22-.22.455-.415.686-.619-5.873-5.19-14.914-4.996-20.528.619l-6.241 6.241c-5.833 5.834-5.833 15.38 0 21.213l59.177 59.177h19.842z" fill="#ffc987"/><g fill="#0f9390"><path d="M365.499 454.876c0 2.75-2.25 5-5 5h-132c-2.75 0-5-2.25-5-5v-40.837c0-2.75 2.25-5 5-5h132c2.75 0 5 2.25 5 5v40.837z"/><path d="M243.342 454.876v-40.837c0-2.75 2.25-5 5-5h-19.843c-2.75 0-5 2.25-5 5v40.837c0 2.75 2.25 5 5 5h19.843c-2.75 0-5-2.25-5-5z"/></g><g fill="#fff"><circle cx="339.5" cy="434.46" r="11"/><path d="M237.499 188.5a7.5 7.5 0 0 1-7.5-7.5v-15c0-4.142 3.357-7.5 7.5-7.5s7.5 3.358 7.5 7.5v15a7.5 7.5 0 0 1-7.5 7.5zm24.749 10.251a7.5 7.5 0 0 1-5.304-12.803l10.607-10.607a7.5 7.5 0 0 1 10.607 10.607l-10.606 10.606a7.478 7.478 0 0 1-5.304 2.197zm25.251 24.749H272.5c-4.143 0-7.5-3.358-7.5-7.5s3.357-7.5 7.5-7.5h14.999c4.143 0 7.5 3.358 7.5 7.5s-3.357 7.5-7.5 7.5zm-85.002 0h-14.998c-4.143 0-7.5-3.358-7.5-7.5s3.357-7.5 7.5-7.5h14.998c4.143 0 7.5 3.358 7.5 7.5s-3.357 7.5-7.5 7.5zm10.252-24.75a7.478 7.478 0 0 1-5.304-2.197l-10.605-10.605a7.5 7.5 0 0 1 10.607-10.607l10.605 10.605a7.5 7.5 0 0 1 0 10.606 7.47 7.47 0 0 1-5.303 2.198z"/></g><circle cx="407.9" cy="93.1" r="93.1" fill="#ef9614"/><circle cx="407.9" cy="93.1" r="66.17" fill="#ffd00d"/><path d="M361.569 93.104c0-33.171 24.41-60.639 56.247-65.426a66.634 66.634 0 0 0-9.921-.743c-36.545 0-66.169 29.625-66.169 66.169s29.624 66.169 66.169 66.169c3.372 0 6.685-.256 9.921-.743-31.837-4.787-56.247-32.254-56.247-65.426z" fill="#ffaf10"/><path d="M420.896 85.937h-23.5V75.604h28.5c4.143 0 7.5-3.358 7.5-7.5s-3.357-7.5-7.5-7.5h-10.5v-6.5c0-4.142-3.357-7.5-7.5-7.5s-7.5 3.358-7.5 7.5v6.5h-5.5c-6.893 0-12.5 5.607-12.5 12.5v15.333c0 6.893 5.607 12.5 12.5 12.5h23.5v10.334h-28.5c-4.143 0-7.5 3.358-7.5 7.5s3.357 7.5 7.5 7.5h10.5v5.833c0 4.142 3.357 7.5 7.5 7.5s7.5-3.358 7.5-7.5v-5.833h5.5c6.893 0 12.5-5.607 12.5-12.5V98.437c0-6.893-5.608-12.5-12.5-12.5z" fill="#db722c"/><circle cx="92.1" cy="422.04" r="81.1" fill="#ef9614"/><circle cx="92.1" cy="422.04" r="54.641" fill="#ffd00d"/><path d="M57.307 422.038c0-26.788 19.281-49.057 44.719-53.726a54.872 54.872 0 0 0-9.921-.915c-30.178 0-54.641 24.464-54.641 54.641 0 30.178 24.463 54.641 54.641 54.641 3.39 0 6.702-.325 9.921-.915-25.438-4.669-44.719-26.939-44.719-53.726z" fill="#ffaf10"/><path d="M103.429 414.828H83.925v-7.068h23.86a7.5 7.5 0 0 0 0-15h-8.181v-4.696c0-4.142-3.357-7.5-7.5-7.5s-7.5 3.358-7.5 7.5v4.696H80.78c-6.537 0-11.855 5.318-11.855 11.855v13.357c0 6.537 5.318 11.855 11.855 11.855h19.505v7.068h-23.86c-4.143 0-7.5 3.358-7.5 7.5s3.357 7.5 7.5 7.5h8.18v4.115c0 4.142 3.357 7.5 7.5 7.5s7.5-3.358 7.5-7.5v-4.115h3.824c6.538 0 11.856-5.318 11.856-11.855v-13.357c0-6.537-5.318-11.855-11.856-11.855z" fill="#db722c"/><circle cx="424.39" cy="326.25" r="34.503" fill="#ffd00d"/><path d="M409.728 326.247c0-15.606 10.364-28.786 24.582-33.048a34.498 34.498 0 0 0-9.922-1.455c-19.055 0-34.503 15.448-34.503 34.503 0 19.056 15.448 34.503 34.503 34.503 3.45 0 6.779-.513 9.922-1.455-14.217-4.263-24.582-17.442-24.582-33.048z" fill="#ffaf10"/></svg>