<svg width="27" height="40" viewBox="0 0 27 40" xmlns="http://www.w3.org/2000/svg" xmlns:xlink="http://www.w3.org/1999/xlink"><title>Group 6</title><defs><path id="a" d="M0 0h26.12v40H0z"/></defs><g fill="none" fill-rule="evenodd"><mask id="b" fill="#fff"><use xlink:href="#a"/></mask><path d="M24.368 13.653c0 4.554-3.438 8.315-7.838 8.791a8.44 8.44 0 0 1-.208.02l-.023.002a8.785 8.785 0 0 1-.227.016h-.01a9.278 9.278 0 0 1-.223.01h-.019a6.244 6.244 0 0 1-.237.004h-5.047a8.31 8.31 0 0 1-.224-.003c-.037 0-.075-.003-.113-.004l-.11-.004-.116-.008-.107-.007-.087-.007-.137-.013-.04-.004c-4.406-.471-7.85-4.235-7.85-8.793V7.185c1.308.806 3.24 1.38 5.406 1.74l.006.002a28.32 28.32 0 0 0 .67.103l.103.015c1.103.155 2.273.26 3.484.31.036 0 .072.002.109.004a39.68 39.68 0 0 0 3.062 0l.106-.005a35.46 35.46 0 0 0 3.488-.31l.098-.013a26.675 26.675 0 0 0 .668-.104l.01-.001c2.166-.36 4.097-.936 5.406-1.74v6.467zm-8.604 10.605v3.652H9.48v-3.704l.094.009.165.014.092.006c.058.004.115.008.173.01.04.003.08.004.12.005.048.002.097.005.146.006l.267.003h5.047l.181-.001zM14.141 33.9a.873.873 0 0 0 .653.239 2.047 2.047 0 0 1 2.16 2.047 2.047 2.047 0 0 1-2.038 2.05c-.63 0-1.215-.286-1.605-.787a.874.874 0 0 0-1.379 0c-.39.5-.974.788-1.604.788a2.047 2.047 0 0 1-2.038-2.052 2.047 2.047 0 0 1 2.16-2.047.872.872 0 0 0 .652-.238.884.884 0 0 0 .276-.642v-3.585h2.488v3.585c0 .243.1.475.275.642zM13.06 1.763c7.316 0 11.308 1.937 11.308 2.931a.396.396 0 0 1-.003.044l-.002.009c-.036.233-.354.649-1.215 1.105-.526.274-1.22.549-2.074.797a17.42 17.42 0 0 1-.334.094c-1.986.531-4.467.839-7.1.878h-.023a38.91 38.91 0 0 1-1.115 0h-.023c-2.633-.04-5.114-.347-7.1-.878a23.39 23.39 0 0 1-.144-.04l-.19-.053c-.854-.249-1.547-.524-2.074-.798a5.207 5.207 0 0 1-.499-.298h14.41a.879.879 0 0 0 .875-.882.879.879 0 0 0-.876-.881H2.531c1.49-.958 5.09-2.028 10.529-2.028zm13.06 2.931c0-1.016-.727-2.455-4.185-3.538C19.552.411 16.4 0 13.06 0S6.568.41 4.184 1.156C.726 2.24 0 3.678 0 4.694c0 .039.001.078.004.118A.877.877 0 0 0 0 4.884v8.769c0 4.87 3.277 8.983 7.728 10.223v4.915c0 .487.392.882.876.882h1.022v2.764a3.814 3.814 0 0 0-3.087 3.748c0 2.104 1.7 3.815 3.789 3.815a3.75 3.75 0 0 0 2.294-.777 3.748 3.748 0 0 0 2.294.777c2.09 0 3.789-1.711 3.789-3.815a3.814 3.814 0 0 0-3.087-3.748v-2.764h1.022a.879.879 0 0 0 .876-.882V24.08c4.89-.917 8.603-5.243 8.603-10.427v-8.77a.886.886 0 0 0-.003-.071l.003-.118z" fill="#FF3464" mask="url(#b)"/><path d="M20 5.385a.764.764 0 0 1-.428-.13.77.77 0 0 1-.327-.49.755.755 0 0 1 .044-.444.785.785 0 0 1 .283-.345.814.814 0 0 1 .277-.115.76.76 0 0 1 .578.115.738.738 0 0 1 .283.345.815.815 0 0 1 .06.295.756.756 0 0 1-.06.293.764.764 0 0 1-.71.476" fill="#FF3464"/></g></svg>