<?xml version="1.0" encoding="utf-8"?>
<!-- Generator: Adobe Illustrator 22.1.0, SVG Export Plug-In . SVG Version: 6.00 Build 0)  -->
<svg version="1.1" id="Layer_1" xmlns="http://www.w3.org/2000/svg" xmlns:xlink="http://www.w3.org/1999/xlink" x="0px" y="0px"
	 viewBox="0 0 568 112" style="enable-background:new 0 0 568 112;" xml:space="preserve">
<style type="text/css">
	.st0{fill:#FFFFFF;}
</style>
<g>
	<g>
		<g>
			<g>
				<g>
					<path class="st0" d="M0.057,2.113h48.524c28.651,0,48.215,12.785,48.215,38.356v0.308c0,26.033-19.872,39.898-48.985,39.898
						H36.103v29.268H0.057V2.113z M45.808,54.95c9.242,0,15.405-4.16,15.405-11.862V42.78c0-7.856-5.7-11.861-15.251-11.861h-9.859
						V54.95H45.808z"/>
				</g>
			</g>
			<g>
				<g>
					<path class="st0" d="M104.496,2.113h52.683c19.101,0,31.27,4.775,38.818,12.323c6.471,6.469,9.859,14.48,9.859,25.571v0.307
						c0,15.713-8.163,26.65-21.257,32.966l25.109,36.662h-41.131l-20.332-30.809h-7.702v30.809h-36.047V2.113z M156.102,53.409
						c8.625,0,13.863-3.851,13.863-10.475v-0.307c0-6.933-5.392-10.321-13.709-10.321h-15.713v21.104H156.102z"/>
				</g>
			</g>
			<g>
				<g>
					<path class="st0" d="M265.767,0c-30.928,0-56,25.072-56,56s25.072,56,56,56s56-25.072,56-56S296.695,0,265.767,0z
						 M265.767,80.436c-13.495,0-24.436-10.94-24.436-24.436c0-13.495,10.94-24.436,24.436-24.436
						c13.495,0,24.436,10.94,24.436,24.436C290.203,69.495,279.262,80.436,265.767,80.436z"/>
				</g>
			</g>
		</g>
		<g>
			<g>
				<circle class="st0" cx="356.791" cy="56.028" r="21.504"/>
			</g>
		</g>
	</g>
	<g>
		<g>
			<path class="st0" d="M378.338,2.117h84.629v20.04h-30.676v87.866h-23.585V22.157h-30.368V2.117z"/>
		</g>
		<g>
			<path class="st0" d="M507.67,110.024L469.594,2.117h25.281l23.894,76.614l23.893-76.614h25.281l-38.23,107.907H507.67z"/>
		</g>
	</g>
</g>
</svg>
