<svg width="44" height="39" viewBox="0 0 44 39" xmlns="http://www.w3.org/2000/svg" xmlns:xlink="http://www.w3.org/1999/xlink"><title>Group 11</title><defs><path id="a" d="M0 39h44V0H0z"/></defs><g fill="none" fill-rule="evenodd"><path d="M16.537 12.964h-2.073v1.346h2.073v6.913h-3.959c-.356 0-.705.026-1.047.075l-.407-1.516h.546v-1.345h-.906l-1.668-6.228a11.411 11.411 0 0 1 3.617-.594h3.824v1.349zM7.335 23.467l-1.921-1.913.897-.894-.956-.951-.897.893-2.218-2.208a11.098 11.098 0 0 1 2.27-3.33 11.58 11.58 0 0 1 3.322-2.349l.379 1.413-1.136 1.13.956.952.582-.58 1.603 5.985a7.13 7.13 0 0 0-2.88 1.852zm-2.684 6.958a11.016 11.016 0 0 1-1.347-1.581h2.242a6.72 6.72 0 0 0 1.25 3.211 11.027 11.027 0 0 1-2.145-1.63zm-3.297-7.583a10.55 10.55 0 0 1 .385-3.043l2.794 2.782-1.24 1.236.955.951 1.241-1.235 1.015 1.01a6.588 6.588 0 0 0-.978 2.955H2.5a10.836 10.836 0 0 1-1.147-4.656zm15.195 7.943h4.072a3.452 3.452 0 0 1-3.384 2.761h-2.374l1.346-.803-.695-1.155-2.134 1.275a3.456 3.456 0 0 1 3.17-2.078zm4.072 6.869h-4.072a3.455 3.455 0 0 1-3.169-2.079l2.134 1.275.695-1.154-1.346-.804h2.374a3.453 3.453 0 0 1 3.384 2.762zm3.396-17.244v-8.795H44v-1.346h-6.29l.109-.106a4.735 4.735 0 0 0 1.353-3.475c-.077-2.556-2.308-4.634-4.973-4.634h-6.36a.355.355 0 0 1-.355-.354c0-.195.159-.354.355-.354h1.72V0h-1.72c-.941 0-1.707.762-1.707 1.7 0 .937.766 1.7 1.707 1.7h6.36c1.942 0 3.566 1.493 3.622 3.328a3.403 3.403 0 0 1-.973 2.498 3.43 3.43 0 0 1-2.476 1.043h-21.66a12.952 12.952 0 0 0-9.168 3.853C1.195 16.508-.063 19.614.002 22.868a12.155 12.155 0 0 0 3.704 8.52 12.336 12.336 0 0 0 8.041 3.489v.015h.049A4.801 4.801 0 0 0 16.549 39h5.49v-.673a4.778 4.778 0 0 0-2.35-4.108 4.778 4.778 0 0 0 2.35-4.107v-.673h-5.49a4.803 4.803 0 0 0-4.75 4.079 5.463 5.463 0 0 1-3.456-1.708 5.431 5.431 0 0 1-1.478-4.12c.187-2.871 2.696-5.121 5.713-5.121h16.293c2.268 0 4.114-1.838 4.114-4.096h-1.352a2.76 2.76 0 0 1-2.762 2.75H17.889v-5.388h1.351v-1.346h-1.35v-2.874h4.776v4.937h-2.073v1.346h2.073v2.512h1.352z" fill="#FF3464"/><path fill="#FF3464" d="M28 15h1v-1h-1zm9.535 2.877h1.493V16.54h-8.192v1.337h3.48a4.088 4.088 0 0 1 3.727 4.085 4.12 4.12 0 0 1-4.121 4.117H31.86c-1.51 0-2.754 1.204-2.754 2.685 0 1.482 1.278 2.687 2.719 2.687v-1.337c-.72 0-1.368-.593-1.368-1.35 0-.755.626-1.348 1.403-1.348h2.06c3.025 0 5.473-2.447 5.473-5.454a5.408 5.408 0 0 0-1.859-4.085"/><mask id="b" fill="#fff"><use xlink:href="#a"/></mask><path fill="#FF3464" mask="url(#b)" d="M34.257 13.687h9.093v-1.338h-9.093zm-1.261 2.139h8.193v-1.337h-8.193zM12.29 19.749h2.79V18.41h-2.79z"/></g></svg>