<svg xmlns="http://www.w3.org/2000/svg" viewBox="0 0 263.49 87.11"><defs><style>.cls-1{fill:#ffcbd7}</style></defs><title>Asset 1</title><g id="Layer_2" data-name="Layer 2"><g id="Layer_1-2" data-name="Layer 1"><path class="cls-1" d="M95.12 30.25l.39 3.26a5.28 5.28 0 0 1-2.16 1.34v18a5.8 5.8 0 0 1 2.16 1.3l-.39 3.26h-9.19l-.39-3.26a5 5 0 0 1 2.16-1.3v-18a4.63 4.63 0 0 1-2.16-1.34l.39-3.26zm13.71 27.11h-6.52l-8.72-14.14 6.56-8.72a4.18 4.18 0 0 1-1.53-1.06l.38-3.19h9l.39 3.18a5.72 5.72 0 0 1-2 1.26l-6.8 8.37 6.21 9.35a6.15 6.15 0 0 1 3.5 1.69zm10.53.31q-4.71 0-7.09-2.51t-2.38-7.31a13.7 13.7 0 0 1 .83-5A7.63 7.63 0 0 1 113 39.6a10 10 0 0 1 6.4-2.2 7.77 7.77 0 0 1 5.6 1.87q1.94 1.87 1.94 6.7 0 2.83-2.79 2.83h-8.52a5 5 0 0 0 1.28 3.5 5.17 5.17 0 0 0 3.56 1A10.16 10.16 0 0 0 123 53a7.68 7.68 0 0 0 1.77-.63l.55-.31 1.18 3.14a8.24 8.24 0 0 1-.69.69A8.51 8.51 0 0 1 123.5 57a11.71 11.71 0 0 1-4.14.67zm2.48-12.37a9.65 9.65 0 0 0 .08-1.34 2.92 2.92 0 0 0-.63-1.67 2.49 2.49 0 0 0-2.18-.88 3 3 0 0 0-2.38.94 6 6 0 0 0-1.1 3.18zm14.21-12.53v4.95h5.62V41h-5.62v10a3.58 3.58 0 0 0 .35 1.83q.35.57 1.69.57a8 8 0 0 0 2.87-.59l1.18 3.06a13.55 13.55 0 0 1-6.14 1.49q-3.16 0-4.28-1.36a6.06 6.06 0 0 1-1.12-3.95V41h-1.77l-.43-2.4a6.56 6.56 0 0 1 2.59-1.49q.47-3.22 2.24-4.36zm16.56 24.9q-4.66 0-6.89-2.48t-2.24-7.48q0-5 2.49-7.66t7.17-2.65q4.68 0 6.93 2.36t2.26 7.37q0 5-2.53 7.78a9.25 9.25 0 0 1-7.19 2.76zm-3.48-10.29q0 6.29 3.77 6.29a3.15 3.15 0 0 0 2.85-1.43 9 9 0 0 0 .92-4.69q0-6.13-3.85-6.13a3.12 3.12 0 0 0-2.82 1.34 8.71 8.71 0 0 0-.87 4.62zM188 34.89a9.35 9.35 0 0 0-3.54-.51 4.47 4.47 0 0 0-3.81 2q-1.45 2-1.45 7.15t1.39 7.25a4.62 4.62 0 0 0 4.18 2.22 21.27 21.27 0 0 0 7.54-1.26l1.41 3.5a18.79 18.79 0 0 1-9.78 2.48q-5.62 0-8.11-3.18t-2.49-10.41q0-7.23 3.08-10.69t8.66-3.46a16.08 16.08 0 0 1 8.52 2.48v.9a15.76 15.76 0 0 1-.27 2.28 9.54 9.54 0 0 1-.79 2.63h-3.73a9.86 9.86 0 0 1-.81-3.38zm12.87 27.03q.71 0 1.51-1.32a8.85 8.85 0 0 0 1.12-3.12l-6.44-15.24a5.34 5.34 0 0 1-2.59-1.49l.39-3h9l.39 3a4.39 4.39 0 0 1-1.73 1.14l2.16 5.93a17.67 17.67 0 0 1 1 3.65l.12.55h.55a22.47 22.47 0 0 1 1.1-4.12l2.08-5.81a4.46 4.46 0 0 1-2-1.33l.39-3h8.64l.39 3a5.41 5.41 0 0 1-2.59 1.53l-6.48 15.32a29.87 29.87 0 0 1-2.88 5.6 5.66 5.66 0 0 1-4.81 2.32 6.36 6.36 0 0 1-4.69-1.61 7.85 7.85 0 0 1 0-.79 9.49 9.49 0 0 1 .9-4.08h3.26a6.52 6.52 0 0 1 .67 2.87zm26.24-20.51q-3.62 0-3.61 6.21 0 3.14 1 4.38a3.5 3.5 0 0 0 2.89 1.24 22.54 22.54 0 0 0 5.26-.55l1.18 3a11.76 11.76 0 0 1-3.38 1.4 15.91 15.91 0 0 1-4.12.57q-8.49 0-8.49-9.82 0-5.73 2.95-8.25a9.66 9.66 0 0 1 6.4-2.2 12.68 12.68 0 0 1 6.29 1.42v.75a9.21 9.21 0 0 1-1 4.24H229a5.77 5.77 0 0 1-.67-2.36q-.43-.03-1.22-.03zm8.37-11.94a18.18 18.18 0 0 1 4.09-.51q1.89 0 3.18.12V53a5.28 5.28 0 0 1 2.16 1.33l-.39 3h-9l-.39-3a4.64 4.64 0 0 1 2.12-1.33V33.83a5.07 5.07 0 0 1-2.16-1.34zm20.47 28.2q-4.71 0-7.09-2.51t-2.38-7.31a13.7 13.7 0 0 1 .83-5 7.63 7.63 0 0 1 2.24-3.24 10 10 0 0 1 6.4-2.2 7.77 7.77 0 0 1 5.6 1.87q1.94 1.87 1.94 6.7 0 2.83-2.79 2.83h-8.52a5 5 0 0 0 1.28 3.5 5.17 5.17 0 0 0 3.56 1 10.16 10.16 0 0 0 2.55-.31 7.68 7.68 0 0 0 1.77-.63l.55-.31 1.18 3.14a8.24 8.24 0 0 1-.69.69 8.51 8.51 0 0 1-2.28 1.1 11.71 11.71 0 0 1-4.15.68zm2.48-12.37a9.65 9.65 0 0 0 .07-1.3 2.92 2.92 0 0 0-.63-1.67 2.49 2.49 0 0 0-2.18-.88 3 3 0 0 0-2.38.94 6 6 0 0 0-1.1 3.18zM13.6 18.29c6.51 0 11.14-3.66 12.16-6.85 2.63-1.73 8.82-.67 12.38.57A32.43 32.43 0 0 1 64.77 63l4.69 3.27A38.15 38.15 0 0 0 38.15 6.29c-3.57 1.24-9.76 2.31-12.37.57C24.73 3.66 20.08 0 13.58 0S1.18 3.27 1.09 9.06v.15c.1 5.79 6.04 9.08 12.51 9.08zm10-6.8c-.22.35-5.08 7.55-15.6 3a21.26 21.26 0 0 0 15.6-3zm33.08 70.82l18.09-.17v-1.86l-18.2.17v-1.72l18.21-.17v-2l-18.21.18V75l18.2-.17v-1.56l-15.48-1.18s-.58-.05-.8-.05a7.56 7.56 0 0 0-5.86 2.88c-6.36 5.74-12.94 1.92-14.49 1.94a32.43 32.43 0 0 1-26.88-50.55L6.52 23.1a38.15 38.15 0 0 0 31.63 59.48c1.8 0 9.29-3.21 14.92 2.2a7.54 7.54 0 0 0 5 2.3h.49l16.24-1.49v-1.72L56.69 84z"/><path class="cls-1" d="M23.24 57.11l.53 4.43h12.49l.53-4.43a7.89 7.89 0 0 0-2.93-1.76V31a7.18 7.18 0 0 0 2.93-1.82l-.53-4.43H23.77l-.53 4.43A6.3 6.3 0 0 0 26.18 31v24.35a6.82 6.82 0 0 0-2.94 1.76z"/><path class="cls-1" d="M54.88 61.54l.53-4.43q-1.28-1.55-4.75-2.29l-8.43-12.7 9.23-11.36A7.78 7.78 0 0 0 54.24 29l-.53-4.32H41.54L41 29a5.66 5.66 0 0 0 2.08 1.44l-8.9 11.89L46 61.54z"/></g></g></svg>