<svg width="40" height="40" viewBox="0 0 40 40" xmlns="http://www.w3.org/2000/svg" xmlns:xlink="http://www.w3.org/1999/xlink"><title>Group 16</title><defs><path id="a" d="M0 .102h39.978V40H0z"/></defs><g fill="none" fill-rule="evenodd"><mask id="b" fill="#fff"><use xlink:href="#a"/></mask><path d="M38.665 31.768a6.946 6.946 0 0 1-2.221 5.107l-.097.082a6.493 6.493 0 0 1-4.398 1.714h-4.004a6.529 6.529 0 0 1-3.938-1.33l-1.162-.886a7.347 7.347 0 0 1-2.641-3.95 14.742 14.742 0 0 1 .34-8.784l4.831-13.643h4.153l1.56 6.644a17.373 17.373 0 0 0 3.932 7.58l1.954 2.194a6.717 6.717 0 0 1 1.69 4.455v.817zm-19.627 6.903a6.53 6.53 0 0 1-3.938-1.33l-1.163-.886a7.345 7.345 0 0 1-2.644-3.95 14.752 14.752 0 0 1 .338-8.784l4.837-13.643h7.512l-4.674 13.194a16.11 16.11 0 0 0-.363 9.609 8.668 8.668 0 0 0 3.115 4.639l1.16.884c.124.094.254.18.382.267h-4.562zm-4.45 0a6.533 6.533 0 0 1-3.939-1.33l-1.168-.885A7.372 7.372 0 0 1 6.844 32.5a14.32 14.32 0 0 1-.495-3.125l-1.313.067c.055 1.164.239 2.318.548 3.44a8.69 8.69 0 0 0 3.108 4.64l1.169.882c.123.094.252.18.38.267h-.675a6.53 6.53 0 0 1-3.939-1.33l-1.161-.886a7.345 7.345 0 0 1-2.641-3.95 14.737 14.737 0 0 1 .339-8.784l4.832-13.643h8.073l-4.673 13.194a16.117 16.117 0 0 0-.363 9.609 8.672 8.672 0 0 0 3.114 4.639l1.165.884c.124.094.253.18.382.267h-.106zM10.71 2.099a.934.934 0 0 1 1.173-.623.948.948 0 0 1 .615 1.183l-1.879 6.09H8.667l2.043-6.65zm8.895 0a.948.948 0 0 1 .89-.665.943.943 0 0 1 .896 1.225l-1.877 6.09h-1.96l2.05-6.65zm9.485 0a.934.934 0 0 1 1.172-.623.948.948 0 0 1 .615 1.183l-1.878 6.09h-1.953l2.044-6.65zm8.86 23.505l-1.956-2.195a16.038 16.038 0 0 1-3.631-6.996l-1.68-7.153a.656.656 0 0 0-.337-.427l1.778-5.767c.073-.224.11-.459.108-.695-.006-1.258-1.017-2.273-2.259-2.267A2.252 2.252 0 0 0 27.837 1.7l-2.17 7.048H20.89l1.76-5.705c.063-.216.096-.44.098-.665C22.747 1.12 21.74.101 20.498.102c-.983 0-1.851.647-2.144 1.598L16.18 8.748h-4.185l1.752-5.682c.071-.224.107-.459.106-.695-.006-1.258-1.017-2.273-2.26-2.267A2.254 2.254 0 0 0 9.457 1.7L7.288 8.748h-.755a.656.656 0 0 0-.617.44L.927 23.272a16.107 16.107 0 0 0-.364 9.609 8.663 8.663 0 0 0 3.115 4.639l1.161.884A7.837 7.837 0 0 0 9.565 40H31.95a7.766 7.766 0 0 0 5.251-2.038l.097-.081a8.302 8.302 0 0 0 2.68-6.113v-.818a8.059 8.059 0 0 0-2.026-5.346z" fill="#FF3464" mask="url(#b)"/><path fill="#FF3464" d="M6 23.555L8.616 17l1.384.444L7.383 24zM9.698 13L9 14.607l1.3.393.7-1.611zm7.538 22L16 35.887A9.743 9.743 0 0 0 18.09 38l.91-1.214A8.198 8.198 0 0 1 17.236 35M16 23.467L14.857 23a18.827 18.827 0 0 0-.34 10l.59-.165.58-.208a17.247 17.247 0 0 1 .313-9.16m19.714 8.793c-.001 1.24-.495 2.421-1.358 3.252l-.068.068a3.69 3.69 0 0 1-2.57 1.055h-3.93a3.694 3.694 0 0 1-2.311-.822l-1.137-.91a4.743 4.743 0 0 1-1.623-2.513 13.194 13.194 0 0 1-.432-3.177c.013-1.103.616-2.1 1.552-2.57a2.345 2.345 0 0 1 1.113-.274h4.065a9.417 9.417 0 0 1 2.976.479l.632.21c.664.225 1.26.633 1.728 1.183l.365.43c.641.754.997 1.736.998 2.754v.835zm-.042-4.503l-.367-.43a5.208 5.208 0 0 0-2.296-1.574l-.636-.212A10.616 10.616 0 0 0 29.015 25H24.95a3.578 3.578 0 0 0-1.712.435c-1.364.707-2.232 2.18-2.238 3.795.016 1.193.177 2.377.479 3.525a6.122 6.122 0 0 0 2.09 3.24l1.138.91A4.916 4.916 0 0 0 27.79 38h3.93a4.928 4.928 0 0 0 3.434-1.411l.067-.068C36.352 35.43 37 33.882 37 32.257v-.832a5.691 5.691 0 0 0-1.328-3.668zm-6.245-6.35a.85.85 0 0 1-.606.26h-3.37a.854.854 0 0 1-.574-.225l-.274-.24a.897.897 0 0 1-.244-.964l2.749-7.795a.158.158 0 0 1 .142-.11.153.153 0 0 1 .155.122l1.048 4.487a20.555 20.555 0 0 0 1.17 3.517c.044.102.067.21.066.321a.917.917 0 0 1-.262.627m1.392-1.493a19.302 19.302 0 0 1-1.093-3.285l-1.047-4.481A1.463 1.463 0 0 0 27.25 11a1.476 1.476 0 0 0-1.374.988l-2.749 7.8a2.246 2.246 0 0 0 .615 2.416l.275.243c.396.356.906.553 1.433.553h3.37c1.203-.004 2.176-.995 2.18-2.22 0-.298-.06-.594-.18-.866"/></g></svg>